<svg width="50" height="55" viewBox="0 0 50 55" fill="none" xmlns="http://www.w3.org/2000/svg">
<path d="M39.4737 55L37.8947 53.7089C32.6316 48.8028 28.9474 45.7042 28.9474 41.831C28.9474 38.7324 31.5789 36.1502 34.7368 36.1502C36.5789 36.1502 38.4211 36.9249 39.4737 38.216C40.5263 36.9249 42.3684 36.1502 44.2105 36.1502C47.3684 36.1502 50 38.4742 50 41.831C50 45.7042 46.3158 48.8028 41.0526 53.7089L39.4737 55M5.26316 51.6432C3.86728 51.6432 2.52858 51.0991 1.54154 50.1306C0.554509 49.1621 0 47.8485 0 46.4789V5.16432C0 2.29812 2.34211 0 5.26316 0H7.89474V18.0751L14.4737 14.2019L21.0526 18.0751V0H36.8421C38.238 0 39.5767 0.544096 40.5637 1.51259C41.5508 2.48109 42.1053 3.79466 42.1053 5.16432V28.6103L39.4737 28.4038C36.7027 28.4059 33.9811 29.123 31.5817 30.483C29.1824 31.843 27.1896 33.7982 25.8034 36.1524C24.4171 38.5066 23.6861 41.1771 23.6837 43.896C23.6813 46.6149 24.4075 49.2866 25.7895 51.6432H5.26316Z" fill="white"/>
</svg>
