<svg width="61" height="38" viewBox="0 0 61 38" fill="none" xmlns="http://www.w3.org/2000/svg">
<path d="M60.8739 31.196L56.4067 9.091C55.4246 3.947 50.931 0.0540005 45.5142 0.00400048V7.65741e-07H15.5929C10.1283 -0.00199923 5.57573 3.914 4.58753 9.093L0.127444 31.196C0.0440781 31.586 -0.00472158 31.986 0.000361721 32.401C-0.00472158 35.493 2.50236 38 5.59606 38C7.59075 38 9.34042 36.961 10.3347 35.393L17.6953 26.354C18.9076 27.4862 20.5152 28.118 22.1869 28.119C25.8246 28.117 28.7739 25.17 28.7739 21.528L32.3322 21.527C32.3322 25.166 35.2846 28.117 38.9222 28.117C40.5634 28.1169 42.1443 27.5085 43.3497 26.413L50.6646 35.393C51.6579 36.957 53.4096 38 55.3992 38C58.4929 38 61.003 35.493 61 32.399C61.0007 31.9948 60.9585 31.5916 60.8739 31.196M19.2366 8.186C19.9513 7.47 20.7677 7.679 21.0554 8.651L21.0513 11.777C20.7677 12.75 19.9513 12.96 19.2386 12.245L18.5076 11.515C18.1638 11.1668 17.9715 10.7004 17.9715 10.215C17.9715 9.72957 18.1638 9.26324 18.5076 8.915L19.2366 8.186M14.0343 4.759L17.1575 4.756C18.1284 5.038 18.3368 5.858 17.6201 6.573L16.8962 7.301C16.7265 7.47105 16.524 7.60611 16.3005 7.69832C16.0771 7.79052 15.8372 7.83801 15.5949 7.83801C15.3526 7.83801 15.1127 7.79052 14.8893 7.69832C14.6659 7.60611 14.4634 7.47105 14.2936 7.301L13.5636 6.572C12.8479 5.857 13.0563 5.038 14.0343 4.759M11.9532 12.242C11.2365 12.96 10.4171 12.75 10.1334 11.777L10.1375 8.651C10.4171 7.678 11.2365 7.469 11.9512 8.185L12.6791 8.914C13.0234 9.262 13.2161 9.72842 13.2161 10.214C13.2161 10.6996 13.0234 11.166 12.6791 11.514L11.9532 12.242M17.1575 15.671L14.0303 15.674C13.0563 15.388 12.8479 14.573 13.5646 13.857L14.2946 13.128C14.4644 12.9582 14.6668 12.8233 14.8901 12.7311C15.1134 12.639 15.3531 12.5915 15.5952 12.5914C15.8374 12.5913 16.0771 12.6386 16.3005 12.7306C16.5238 12.8225 16.7263 12.9573 16.8962 13.127L17.6232 13.857C18.3369 14.573 18.1264 15.388 17.1575 15.671ZM22.1819 25.939C19.7459 25.941 17.7665 23.966 17.7665 21.526C17.7665 19.088 19.7459 17.11 22.1869 17.11C24.6218 17.113 26.5982 19.088 26.5982 21.525C26.6013 23.967 24.6218 25.943 22.1819 25.939ZM42.7825 6.533C43.795 6.535 44.6175 7.358 44.6175 8.372C44.6196 9.391 43.7971 10.216 42.7784 10.211C41.7617 10.214 40.9392 9.391 40.9392 8.374C40.9403 7.358 41.7617 6.535 42.7825 6.533M38.9222 25.941C36.4863 25.941 34.5099 23.964 34.5079 21.526C34.5099 19.088 36.4853 17.11 38.9222 17.11C41.3632 17.112 43.3406 19.088 43.3386 21.526C43.3386 23.964 41.3642 25.939 38.9222 25.941ZM42.9512 15.733C41.9346 15.733 41.1111 14.907 41.1111 13.892C41.11 12.875 41.9346 12.051 42.9512 12.051C43.9679 12.051 44.7893 12.875 44.7924 13.892C44.7924 14.908 43.9658 15.733 42.9512 15.733ZM48.0803 4.696C49.0959 4.695 49.9194 5.518 49.9214 6.535C49.9194 7.549 49.0959 8.374 48.0803 8.374C47.0636 8.374 46.2411 7.549 46.2411 6.535C46.2391 5.517 47.0595 4.692 48.0803 4.696ZM48.2511 13.893C47.2364 13.894 46.4129 13.071 46.416 12.055C46.4129 11.038 47.2364 10.213 48.2531 10.216C49.2677 10.214 50.0933 11.036 50.0933 12.052C50.0922 13.07 49.2677 13.894 48.2511 13.893" fill="white"/>
</svg>
