<svg width="56" height="39" viewBox="0 0 56 39" fill="none" xmlns="http://www.w3.org/2000/svg">
<path d="M28.9975 2.89142e-05C24.7702 -0.00723839 19.4742 1.35538 14.2495 4.12907C9.03305 6.90275 4.89837 10.5364 2.47124 14.0853C0.0429163 17.622 -0.61374 20.9165 0.580828 23.2663C1.77658 25.6039 4.79982 26.9484 9.0378 26.9484C13.2758 26.9605 18.5718 25.5918 23.7847 22.8303C29.0094 20.0566 33.1417 16.4108 35.5641 12.8741C37.9984 9.3373 38.6396 6.04279 37.4521 3.69303C36.2528 1.35538 33.2367 2.89142e-05 28.9975 2.89142e-05V2.89142e-05ZM39.9101 8.51367C39.4945 10.3668 38.5921 12.2684 37.3215 14.1216C34.6379 18.0338 30.2562 21.8492 24.7702 24.7561C19.2843 27.6751 13.7151 29.1407 9.03661 29.1407C6.82797 29.1407 4.78082 28.8016 3.05546 28.0869L4.31296 30.5578C5.50991 32.9076 8.52483 34.252 12.7652 34.252C17.0044 34.252 22.3004 32.8955 27.5132 30.1218C32.738 27.3602 36.8703 23.7144 39.2927 20.1656C41.7151 16.6288 42.38 13.3343 41.1807 10.9967L39.9101 8.51367ZM43.33 10.5485C44.6599 13.7825 43.5912 17.7189 41.0501 21.4131C38.8058 24.6955 35.3741 27.881 31.1231 30.5457C32.4411 30.6911 33.8186 30.7637 35.2197 30.7637C41.0976 30.7637 46.4173 29.4798 50.1697 27.4813C53.9339 25.4828 56 22.8666 56 20.2261C56 17.5857 53.9339 14.9695 50.1697 12.971C48.2579 11.9535 45.9305 11.1178 43.33 10.5485V10.5485ZM56 25.6645C54.7888 27.1058 53.1264 28.3776 51.1671 29.4193C47.0111 31.6237 41.4063 32.9439 35.2197 32.9439C32.7024 32.9439 30.28 32.7259 28.012 32.3141C25.2571 33.7312 22.4903 34.785 19.8305 35.4754C19.973 35.5601 20.1155 35.6328 20.2698 35.7176C24.0221 37.7161 29.3419 39 35.2197 39C41.0976 39 46.4173 37.7161 50.1697 35.7176C53.9339 33.7191 56 31.1029 56 28.4624V25.6645Z" fill="white"/>
</svg>
