<svg width="99" height="38" viewBox="0 0 99 38" fill="none" xmlns="http://www.w3.org/2000/svg">
<path d="M45.4417 37.6946C45.4417 37.8519 45.5914 37.9352 45.7505 37.9352C45.9002 37.9352 46.0593 37.8519 46.0593 37.6946V31.3932C46.0593 31.2359 45.9002 31.1711 45.7505 31.1711C45.5914 31.1711 45.4417 31.2359 45.4417 31.3932V37.6946Z" fill="#555A6A"/>
<path d="M47.9205 35.2333C47.9205 34.493 48.482 34.0581 49.0341 34.0581C49.6798 34.0581 50.2038 34.6411 50.2038 35.2333V37.6946C50.2038 37.8519 50.3629 37.9352 50.5033 37.9352C50.653 37.9352 50.8121 37.8519 50.8121 37.6946V35.2333C50.8121 34.2802 50.0447 33.5029 49.1464 33.5029C48.5194 33.5029 48.0889 33.8453 47.8924 34.2062V33.7805C47.8924 33.651 47.7614 33.5584 47.6117 33.5584C47.4339 33.5584 47.3122 33.651 47.3122 33.7805V37.6946C47.3122 37.8149 47.4339 37.9352 47.6117 37.9352C47.7801 37.9352 47.9205 37.8149 47.9205 37.6946V35.2333Z" fill="#555A6A"/>
<path d="M52.5629 32.5313C52.5722 31.9391 53.0495 31.4209 53.6952 31.4209H53.8543C54.0134 31.4209 54.1163 31.2914 54.1163 31.1526C54.1163 31.0045 54.0134 30.875 53.8543 30.875H53.6203C52.722 30.875 51.9546 31.643 51.9546 32.5776V37.7039C51.9546 37.8427 52.0856 37.9352 52.2447 37.9352C52.4132 37.9352 52.5629 37.8427 52.5629 37.7039V34.0581H53.9011C54.0321 34.0581 54.1163 33.9378 54.1163 33.799C54.1163 33.6787 54.0321 33.5584 53.9011 33.5584H52.5629V32.5313Z" fill="#555A6A"/>
<path d="M56.0692 33.5029C55.4703 33.5029 54.8059 33.7343 54.8059 33.9748C54.8059 34.1136 54.8901 34.2987 55.0492 34.2987C55.1989 34.2987 55.4235 34.0304 56.0505 34.0304C56.8553 34.0304 57.1547 34.6966 57.1547 35.2888V35.5109H56.6775C55.3767 35.5109 54.4971 35.77 54.4971 36.7786C54.4971 37.6114 55.0585 38 55.7697 38C56.3967 38 56.8553 37.6576 57.1828 37.2875V37.6946C57.1828 37.8334 57.3044 37.9352 57.4635 37.9352C57.6413 37.9352 57.763 37.8334 57.763 37.6946V35.2888C57.763 34.3635 57.3232 33.5029 56.0692 33.5029ZM57.1547 36.5195C57.1547 36.9359 56.5184 37.4911 55.9195 37.4911C55.4609 37.4911 55.1053 37.2597 55.1053 36.7231C55.1053 36.0106 55.9007 35.9273 56.7617 35.9273H57.1547V36.5195Z" fill="#555A6A"/>
<path d="M61.6884 37.7039C61.6884 37.8705 61.8475 37.9352 61.9879 37.9352C62.1376 37.9352 62.2967 37.8705 62.2967 37.7039V35.1963C62.2967 34.5023 62.8488 34.0581 63.3915 34.0581C63.9062 34.0581 64.4584 34.456 64.4584 35.2333V37.6946C64.4584 37.8149 64.5987 37.9352 64.7578 37.9352C64.9356 37.9352 65.0666 37.8149 65.0666 37.6946V35.2333C65.0666 34.1321 64.2993 33.5029 63.4945 33.5029C62.9517 33.5029 62.3996 33.799 62.0721 34.4282C61.8475 33.8823 61.3609 33.5029 60.7433 33.5029C60.1256 33.5029 59.7045 33.8453 59.4986 34.2062V33.7805C59.4986 33.651 59.3676 33.5584 59.2086 33.5584C59.0401 33.5584 58.9091 33.651 58.9091 33.7805V37.6946C58.9091 37.8149 59.0401 37.9352 59.2086 37.9352C59.377 37.9352 59.5174 37.8149 59.5174 37.6946V35.2333C59.5174 34.4838 60.0788 34.0581 60.6216 34.0581C61.2018 34.0581 61.6884 34.5393 61.6884 35.2055V37.7039Z" fill="#555A6A"/>
<path d="M68.2059 37.6946C68.2059 37.8519 68.3556 37.9352 68.5147 37.9352C68.6644 37.9352 68.8235 37.8519 68.8235 37.6946V35.1963H70.1711C71.266 35.1963 72.1175 34.6596 72.1175 33.2253V33.1328C72.1175 31.6985 71.2753 31.1711 70.1898 31.1711H68.4679C68.3088 31.1804 68.2059 31.2729 68.2059 31.3932V37.6946ZM70.1711 31.7356C71.0039 31.7356 71.4999 32.1797 71.4999 33.142V33.2531C71.4999 34.2154 71.0039 34.6688 70.1711 34.6688H68.8235V31.7356H70.1711Z" fill="#555A6A"/>
<path d="M73.3934 30.875C73.225 30.875 73.094 30.9675 73.094 31.0971V37.6946C73.094 37.8149 73.225 37.9352 73.3934 37.9352C73.5712 37.9352 73.7022 37.8149 73.7022 37.6946V31.0971C73.7022 30.9675 73.5712 30.875 73.3934 30.875Z" fill="#555A6A"/>
<path d="M76.2198 33.5029C75.6209 33.5029 74.9565 33.7343 74.9565 33.9748C74.9565 34.1136 75.0407 34.2987 75.1998 34.2987C75.3495 34.2987 75.5741 34.0304 76.2011 34.0304C77.0059 34.0304 77.3053 34.6966 77.3053 35.2888V35.5109H76.8281C75.5273 35.5109 74.6477 35.77 74.6477 36.7786C74.6477 37.6114 75.2092 38 75.9204 38C76.5473 38 77.0059 37.6576 77.3334 37.2875V37.6946C77.3334 37.8334 77.4551 37.9352 77.6141 37.9352C77.7919 37.9352 77.9136 37.8334 77.9136 37.6946V35.2888C77.9136 34.3635 77.4738 33.5029 76.2198 33.5029ZM77.3053 36.5195C77.3053 36.9359 76.669 37.4911 76.0701 37.4911C75.6115 37.4911 75.2559 37.2597 75.2559 36.7231C75.2559 36.0106 76.0514 35.9273 76.9123 35.9273H77.3053V36.5195Z" fill="#555A6A"/>
<path d="M79.6493 34.0581H80.8564C80.9781 34.0581 81.0717 33.9378 81.0717 33.8083C81.0717 33.6787 80.9781 33.5584 80.8564 33.5584H79.6493V31.6985C79.6493 31.569 79.4902 31.4765 79.3405 31.4765C79.2001 31.4765 79.041 31.569 79.041 31.6985V36.575C79.041 37.5281 79.5557 37.9352 80.5196 37.9352H80.7816C80.95 37.9352 81.0623 37.8057 81.0623 37.6576C81.0623 37.5188 80.95 37.3893 80.7816 37.3893H80.5196C79.8739 37.3893 79.6493 37.1765 79.6493 36.575V34.0581Z" fill="#555A6A"/>
<path d="M82.4461 32.5313C82.4555 31.9391 82.9327 31.4209 83.5784 31.4209H83.7375C83.8966 31.4209 83.9995 31.2914 83.9995 31.1526C83.9995 31.0045 83.8966 30.875 83.7375 30.875H83.5036C82.6052 30.875 81.8379 31.643 81.8379 32.5776V37.7039C81.8379 37.8427 81.9689 37.9352 82.1279 37.9352C82.2964 37.9352 82.4461 37.8427 82.4461 37.7039V34.0581H83.7843C83.9153 34.0581 83.9995 33.9378 83.9995 33.799C83.9995 33.6787 83.9153 33.5584 83.7843 33.5584H82.4461V32.5313Z" fill="#555A6A"/>
<path d="M86.1246 33.5029C85.1514 33.5029 84.3559 34.308 84.3559 35.2333V36.2419C84.3559 37.1672 85.1794 38 86.1246 38C87.0791 38 87.912 37.158 87.912 36.2419V35.2333C87.912 34.2802 87.0791 33.5029 86.1246 33.5029ZM87.3037 36.2419C87.3037 36.8618 86.7796 37.4448 86.1246 37.4448C85.4789 37.4448 84.9642 36.8618 84.9642 36.2419V35.2333C84.9642 34.6411 85.4695 34.0581 86.1246 34.0581C86.7796 34.0581 87.3037 34.6411 87.3037 35.2333V36.2419Z" fill="#555A6A"/>
<path d="M91.0822 34.0581C91.2132 34.0581 91.3255 33.9286 91.3255 33.7805C91.3255 33.6325 91.2132 33.5029 91.0822 33.5029H90.7546C90.1464 33.5029 89.7066 33.8638 89.5007 34.2339V33.7805C89.5007 33.651 89.3697 33.5584 89.2106 33.5584C89.0421 33.5584 88.9111 33.651 88.9111 33.7805V37.6946C88.9111 37.8149 89.0421 37.9352 89.2106 37.9352C89.3884 37.9352 89.5194 37.8149 89.5194 37.6946V35.4091C89.5194 34.567 90.137 34.0581 90.7546 34.0581H91.0822Z" fill="#555A6A"/>
<path d="M94.7884 37.7039C94.7884 37.8705 94.9475 37.9352 95.0879 37.9352C95.2376 37.9352 95.3967 37.8705 95.3967 37.7039V35.1963C95.3967 34.5023 95.9488 34.0581 96.4916 34.0581C97.0063 34.0581 97.5584 34.456 97.5584 35.2333V37.6946C97.5584 37.8149 97.6987 37.9352 97.8578 37.9352C98.0356 37.9352 98.1666 37.8149 98.1666 37.6946V35.2333C98.1666 34.1321 97.3993 33.5029 96.5945 33.5029C96.0517 33.5029 95.4996 33.799 95.1721 34.4282C94.9475 33.8823 94.4609 33.5029 93.8433 33.5029C93.2257 33.5029 92.8045 33.8453 92.5987 34.2062V33.7805C92.5987 33.651 92.4677 33.5584 92.3086 33.5584C92.1401 33.5584 92.0091 33.651 92.0091 33.7805V37.6946C92.0091 37.8149 92.1401 37.9352 92.3086 37.9352C92.477 37.9352 92.6174 37.8149 92.6174 37.6946V35.2333C92.6174 34.4838 93.1789 34.0581 93.7216 34.0581C94.3018 34.0581 94.7884 34.5393 94.7884 35.2055V37.7039Z" fill="#555A6A"/>
<path d="M49.2929 1.84622C49.2929 0.344211 48.2283 0 47.3203 0C47.0385 0 45.4417 -1.32632e-06 45.4417 1.84622V24.6267C45.4417 26.1287 46.4749 26.4417 47.3829 26.4417C47.6961 26.4417 49.2929 26.4417 49.2929 24.6267V1.84622Z" fill="#555A6A"/>
<path d="M61.0001 1.87751C60.1234 0.125167 58.2447 0 57.7124 0C57.2115 0 54.8944 0.125168 54.8944 2.65981V24.6267C54.8944 26.1287 55.9277 26.4417 56.8357 26.4417C57.1175 26.4417 58.7144 26.4417 58.7144 24.6267V5.82029C58.7144 5.60125 58.8083 5.28833 59.0901 5.28833C59.2467 5.28833 59.4345 5.53867 59.5285 5.69513L69.0471 24.5954C69.642 25.7845 70.7065 26.4417 72.3347 26.4417C72.8357 26.4417 75.184 26.3791 75.184 23.8444V1.84622C75.184 0.344211 74.1508 0 73.2427 0C72.9296 0 71.3328 -1.32632e-06 71.3328 1.84622V20.6527C71.3328 20.903 71.2388 21.2159 70.957 21.2159C70.6752 21.2159 70.5187 20.9343 70.4561 20.7778L61.0001 1.87751Z" fill="#555A6A"/>
<path d="M84.7968 11.7345V5.50738C84.7968 4.56862 85.2665 4.03666 86.2997 4.03666H96.4445C98.0414 4.03666 98.1666 2.81627 98.1666 2.34689C98.1666 2.12785 98.1666 0.688422 96.4445 0.688422H85.2038C82.1353 0.688422 80.9455 1.90881 80.9455 4.91283V24.6267C80.9455 26.16 82.104 26.4417 82.9181 26.4417C83.1999 26.4417 84.7968 26.4417 84.7968 24.6267V14.9575H94.9103C95.9749 14.9575 96.6324 14.4569 96.6324 13.3303C96.6324 11.7345 95.4113 11.7345 94.9103 11.7345H84.7968Z" fill="#555A6A"/>
<path d="M14.1382 4.86176C14.1382 2.17941 16.3176 0 19 0C22.1294 0 23.4706 2.90588 26.0412 2.90588C28.0529 2.90588 29.2823 1.17353 31.1823 0.391176C31.2941 0.335294 31.4618 0.279412 31.5735 0.223529C31.6294 0.223529 31.6294 0.223529 31.6853 0.223529C31.797 0.167647 31.9647 0.167647 32.0765 0.111765H32.1323C32.2441 0.111765 32.4118 0.0558823 32.5794 0.0558823H32.6353C32.8029 0.0558823 32.9147 0.0558823 33.0823 0.0558823C35.8206 0 38 2.17941 38 4.86176C38 5.02941 38 5.19706 38 5.30882V5.3647C38 5.53235 37.9441 5.64412 37.9441 5.81176V5.86765C37.8882 5.97941 37.8882 6.14706 37.8323 6.25882C37.8323 6.3147 37.8323 6.3147 37.8323 6.37059C37.7765 6.48235 37.7206 6.65 37.6647 6.76176C36.8823 8.66176 35.15 9.89117 35.15 11.9029C35.15 13.9147 36.8823 15.1441 37.6647 17.0441C37.7206 17.1559 37.7765 17.3235 37.8323 17.4353C37.8323 17.4912 37.8323 17.4912 37.8323 17.5471C37.8882 17.6588 37.8882 17.8265 37.9441 17.9382V17.9941C37.9441 18.1059 38 18.2735 38 18.4412V18.4971C38 18.6647 38 18.7765 38 18.9441C38 19.1118 38 19.2794 38 19.3912V19.4471C38 19.6147 37.9441 19.7265 37.9441 19.8941V19.95C37.8882 20.0618 37.8882 20.2294 37.8323 20.3412C37.8323 20.3971 37.8323 20.3971 37.8323 20.4529C37.7765 20.5647 37.7206 20.7323 37.6647 20.8441C36.8823 22.7441 35.15 23.9735 35.15 25.9853C35.15 27.997 36.8823 29.2265 37.6647 31.1265C37.7206 31.2382 37.7765 31.4059 37.8323 31.5176C37.8323 31.5735 37.8323 31.5735 37.8323 31.6294C37.8882 31.7412 37.8882 31.9088 37.9441 32.0206V32.0765C37.9441 32.1882 38 32.3559 38 32.5235V32.5794C38 32.7471 38 32.8588 38 33.0265C38 35.7088 35.8206 37.8882 33.1382 37.8882C30.4559 37.8882 28.2765 35.7088 28.2765 33.0265C28.2765 32.8588 28.2765 32.6912 28.2765 32.5794V32.5235C28.2765 32.3559 28.3323 32.2441 28.3323 32.0765V32.0206C28.3882 31.9088 28.3882 31.7412 28.4441 31.6294C28.4441 31.5735 28.4441 31.5735 28.4441 31.5176C28.5 31.4059 28.5559 31.2382 28.6118 31.1265C29.3941 29.2265 31.1265 27.997 31.1265 25.9853C31.1265 23.9735 29.3941 22.7441 28.6118 20.8441C28.5559 20.7323 28.5 20.5647 28.4441 20.4529C28.4441 20.3971 28.4441 20.3971 28.4441 20.3412C28.3882 20.2294 28.3882 20.0618 28.3323 19.95V19.8941C28.3323 19.7823 28.2765 19.6147 28.2765 19.4471V19.3912C28.2765 19.2235 28.2765 19.1118 28.2765 18.9441C28.2765 18.7765 28.2765 18.6088 28.2765 18.4971V18.4412C28.2765 18.2735 28.3323 18.1618 28.3323 17.9941V17.9382C28.3882 17.8265 28.3882 17.6588 28.4441 17.5471C28.4441 17.4912 28.4441 17.4912 28.4441 17.4353C28.5 17.3235 28.5559 17.1559 28.6118 17.0441C29.3941 15.1441 31.1265 13.9147 31.1265 11.9029C31.1265 10.5059 30.2882 9.5 29.5618 8.38235C28.4441 7.6 27.4382 6.81765 26.0412 6.81765C23.4706 6.81765 22.1294 9.72353 19 9.72353C16.3176 9.77941 14.1382 7.6 14.1382 4.86176ZM4.86176 9.77941C7.54412 9.77941 9.72353 7.6 9.72353 4.91765C9.72353 2.23529 7.6 0 4.86176 0C2.17941 0 0 2.17941 0 4.86176C0 7.6 2.17941 9.77941 4.86176 9.77941ZM19 38C21.6823 38 23.8618 35.8206 23.8618 33.1382C23.8618 30.4559 21.6823 28.2765 19 28.2765C16.3176 28.2765 14.1382 30.4559 14.1382 33.1382C14.1382 35.8206 16.3176 38 19 38ZM19 23.9176C21.6823 23.9176 23.8618 21.7382 23.8618 19.0559C23.8618 16.3735 21.6823 14.1941 19 14.1941C16.3176 14.1941 14.1382 16.3735 14.1382 19.0559C14.1382 21.6823 16.3176 23.9176 19 23.9176ZM0.0558823 19.5029C0.0558823 19.6706 0.111765 19.7823 0.111765 19.95V20.0059C0.167647 20.1176 0.167647 20.2853 0.223529 20.3971C0.223529 20.4529 0.223529 20.4529 0.223529 20.5088C0.279412 20.6206 0.335294 20.7882 0.391176 20.9C1.17353 22.8 2.90588 24.0294 2.90588 26.0412C2.90588 28.0529 1.17353 29.2823 0.391176 31.1823C0.335294 31.2941 0.279412 31.4618 0.223529 31.5735C0.223529 31.6294 0.223529 31.6294 0.223529 31.6853C0.167647 31.797 0.167647 31.9647 0.111765 32.0765V32.1323C0.111765 32.2441 0.0558823 32.4118 0.0558823 32.5794V32.6353C0.0558823 32.8029 0.0558823 32.9147 0.0558823 33.0823C0 35.8206 2.17941 38 4.86176 38C7.54412 38 9.72353 35.8206 9.72353 33.1382C9.72353 32.9706 9.72353 32.8029 9.72353 32.6912V32.6353C9.72353 32.4676 9.66764 32.3559 9.66764 32.1882V32.1323C9.61176 32.0206 9.61176 31.8529 9.55588 31.7412C9.55588 31.6853 9.55588 31.6853 9.55588 31.6294C9.5 31.5176 9.44411 31.35 9.38823 31.2382C8.60588 29.3382 6.87353 28.1088 6.87353 26.0971C6.87353 24.0853 8.60588 22.8559 9.38823 20.9559C9.44411 20.8441 9.5 20.6765 9.55588 20.5647C9.55588 20.5088 9.55588 20.5088 9.55588 20.4529C9.61176 20.3412 9.61176 20.1735 9.66764 20.0618V20.0059C9.66764 19.8941 9.72353 19.7265 9.72353 19.5588V19.5029C9.72353 19.3353 9.72353 19.2235 9.72353 19.0559C9.72353 16.3735 7.54412 14.1941 4.86176 14.1941C2.17941 14.1941 0 16.3176 0 19C0 19.1676 0 19.3353 0 19.4471C0 19.5029 0 19.5029 0.0558823 19.5029Z" fill="url(#paint0_linear_236_396)"/>
<defs>
<linearGradient id="paint0_linear_236_396" x1="25.669" y1="8.73217" x2="-9.70056" y2="62.8918" gradientUnits="userSpaceOnUse">
<stop stop-color="#6EB958"/>
<stop offset="1" stop-color="#BDFF00"/>
</linearGradient>
</defs>
</svg>