<svg width="57" height="36" viewBox="0 0 57 36" fill="none" xmlns="http://www.w3.org/2000/svg">
<path fill-rule="evenodd" clip-rule="evenodd" d="M29.2712 7.59481C32.577 3.34537 36.2319 0 40.9056 0C49.7294 0 56.9964 10.6761 57 23.3871C57 31.1411 53.4876 36 47.1788 36C41.6822 36 38.6471 33.0677 33.2004 24.4063L30.8244 20.6038L30.404 19.9368C29.7844 18.9414 29.1551 17.9515 28.516 16.9673L24.3197 24.0102C18.36 33.9142 15.0043 36 10.3449 36C3.86863 36 0 31.2088 0 23.6106C0 11.4718 7.10674 0 16.3794 0C17.5157 0 18.6058 0.132054 19.6709 0.413092C20.7752 0.704289 21.8474 1.15801 22.9233 1.7912C24.9787 3.00677 27.0341 4.88939 29.2712 7.59481ZM34.6716 15.1253C33.774 13.737 32.9119 12.4605 32.0819 11.2889L32.0605 11.2619C35.0706 6.84312 37.5571 4.6456 40.5102 4.6456C46.648 4.6456 51.5604 13.2359 51.5604 23.7867C51.5604 27.8093 50.1711 30.1422 47.3035 30.1422C44.5498 30.1422 43.2354 28.4153 38.0059 20.4244L34.6681 15.1253H34.6716ZM17.2628 5.94582C19.8454 6.28442 22.1966 8.09255 25.5985 12.7212C23.6356 15.5782 21.6941 18.4485 19.7742 21.3318C14.9402 28.5305 13.2695 30.1456 10.58 30.1456C7.81207 30.1456 6.16274 27.8363 6.16274 23.7122C6.16274 14.9018 10.7866 5.88826 16.301 5.88826C16.6252 5.88826 16.9458 5.90858 17.2628 5.94921V5.94582Z" fill="white"/>
</svg>
