<svg fill="none" height="655" viewBox="0 0 660 655" width="660" xmlns="http://www.w3.org/2000/svg"><g stroke="#fff" stroke-opacity=".1"><path d="m248.05 248.05c-64.377 64.377-113.453 131.834-140.764 188.843-13.6566 28.507-21.8588 54.376-23.8259 75.925-1.9675 21.552 2.3062 38.708 13.5017 49.904 11.1952 11.195 28.3512 15.469 49.9042 13.502 21.549-1.968 47.418-10.17 75.924-23.826 57.009-27.312 124.467-76.388 188.844-140.764 64.376-64.377 113.452-131.834 140.763-188.843 13.657-28.507 21.859-54.376 23.826-75.925 1.968-21.552-2.306-38.709-13.501-49.904-11.196-11.1955-28.352-15.4692-49.905-13.5017-21.549 1.9671-47.417 10.1693-75.924 23.8257-57.009 27.311-124.467 76.387-188.843 140.764z"/><path d="m411.634 248.05c64.376 64.377 113.452 131.834 140.764 188.843 13.656 28.507 21.858 54.376 23.826 75.925 1.967 21.552-2.307 38.708-13.502 49.904-11.196 11.195-28.352 15.469-49.905 13.502-21.549-1.968-47.417-10.17-75.924-23.826-57.009-27.312-124.467-76.388-188.843-140.764-64.377-64.377-113.453-131.834-140.764-188.843-13.6565-28.507-21.8587-54.376-23.8258-75.925-1.9674-21.552 2.3063-38.709 13.5017-49.904 11.1951-11.1955 28.3521-15.4692 49.9041-13.5017 21.549 1.9671 47.418 10.1693 75.924 23.8257 57.01 27.311 124.467 76.387 188.844 140.764z"/><path d="m329.842 214.171c91.042 0 173.444 12.998 233.067 33.998 29.814 10.5 53.906 22.992 70.534 36.839 16.632 13.848 25.741 29.002 25.741 44.834 0 15.833-9.109 30.986-25.741 44.835-16.628 13.847-40.72 26.339-70.534 36.839-59.623 21-142.025 33.998-233.067 33.998s-173.444-12.998-233.0674-33.998c-29.814-10.5-53.9056-22.992-70.534-36.839-16.63133-13.849-25.740597-29.002-25.740597-44.835-.000001-15.832 9.109257-30.986 25.740597-44.834 16.6284-13.847 40.72-26.339 70.534-36.839 59.6234-21 142.0254-33.998 233.0674-33.998z"/><path d="m445.513 329.842c0 91.042-12.997 173.444-33.997 233.067-10.501 29.814-22.992 53.906-36.839 70.534-13.849 16.632-29.002 25.741-44.835 25.741s-30.986-9.109-44.835-25.741c-13.846-16.628-26.338-40.72-36.839-70.534-20.999-59.623-33.997-142.025-33.997-233.067s12.998-173.444 33.997-233.0674c10.501-29.814 22.993-53.9056 36.839-70.534 13.849-16.63134 29.002-25.7406 44.835-25.7406s30.986 9.10926 44.835 25.7406c13.847 16.6284 26.338 40.72 36.839 70.534 21 59.6234 33.997 142.0254 33.997 233.0674z"/></g><circle cx="575" cy="117" fill="#512e70" r="12"/><circle cx="19" cy="293" fill="#5c2d7b" r="8"/></svg>