<svg fill="none" height="60" viewBox="0 0 61 60" width="61" xmlns="http://www.w3.org/2000/svg"><path d="m52.8335 29.115v23.385c0 .663-.2634 1.2989-.7322 1.7678-.4689.4688-1.1048.7322-1.7678.7322h-40c-.66303 0-1.29892-.2634-1.76776-.7322-.46884-.4689-.73223-1.1048-.73223-1.7678v-23.385c-1.61421-1.8251-2.50362-4.1785-2.5-6.615v-15c0-.66304.26339-1.29893.73223-1.76777s1.10473-.73223 1.76777-.73223h44.99999c.663 0 1.2989.26339 1.7678.73223.4688.46884.7322 1.10473.7322 1.76777v15c0 2.535-.945 4.85-2.5 6.615zm-17.5-6.615c0-.663.2634-1.2989.7322-1.7678.4689-.4688 1.1048-.7322 1.7678-.7322s1.2989.2634 1.7678.7322c.4688.4689.7322 1.1048.7322 1.7678 0 1.3261.5268 2.5979 1.4645 3.5355.9377.9377 2.2094 1.4645 3.5355 1.4645s2.5979-.5268 3.5355-1.4645c.9377-.9376 1.4645-2.2094 1.4645-3.5355v-12.5h-40v12.5c0 1.3261.5268 2.5979 1.4645 3.5355.9377.9377 2.2094 1.4645 3.5355 1.4645s2.5979-.5268 3.5355-1.4645c.9377-.9376 1.4645-2.2094 1.4645-3.5355 0-.663.2634-1.2989.7322-1.7678.4689-.4688 1.1048-.7322 1.7678-.7322s1.2989.2634 1.7678.7322c.4688.4689.7322 1.1048.7322 1.7678 0 1.3261.5268 2.5979 1.4645 3.5355.9377.9377 2.2094 1.4645 3.5355 1.4645s2.5979-.5268 3.5355-1.4645c.9377-.9376 1.4645-2.2094 1.4645-3.5355z" fill="#fff"/></svg>