<svg fill="none" height="60" viewBox="0 0 61 60" width="61" xmlns="http://www.w3.org/2000/svg"><path d="m43.1666 10c3.9783 0 7.7936 1.5804 10.6066 4.3934 2.8131 2.813 4.3934 6.6284 4.3934 10.6066v10c0 3.9782-1.5803 7.7936-4.3934 10.6066-2.813 2.8131-6.6283 4.3934-10.6066 4.3934h-25c-3.9782 0-7.7935-1.5803-10.60658-4.3934-2.81304-2.813-4.39339-6.6284-4.39339-10.6066v-10c0-3.9782 1.58035-7.7936 4.39339-10.6066 2.81308-2.813 6.62838-4.3934 10.60658-4.3934zm-17.5 12.5h-5v5h-5v5h4.9975l.0025 5h5l-.0025-5h5.0025v-5h-5zm20 10h-5v5h5zm-5-10h-5v5h5z" fill="#fff"/></svg>