<svg fill="none" height="60" viewBox="0 0 61 60" width="61" xmlns="http://www.w3.org/2000/svg"><path d="m47.8335 55h-35c-1.9891 0-3.89678-.7902-5.3033-2.1967-1.40653-1.4065-2.1967-3.3142-2.1967-5.3033v-40c0-.66304.26339-1.29893.73223-1.76777s1.10472-.73223 1.76777-.73223h35c.663 0 1.2989.26339 1.7678.73223.4688.46884.7322 1.10473.7322 1.76777v30h10v10c0 1.9891-.7902 3.8968-2.1967 5.3033s-3.3142 2.1967-5.3033 2.1967zm-2.5-12.5v5c0 .663.2634 1.2989.7322 1.7678.4689.4688 1.1048.7322 1.7678.7322s1.2989-.2634 1.7678-.7322c.4688-.4689.7322-1.1048.7322-1.7678v-5zm-30-25v5h20v-5zm0 10v5h20v-5zm0 10v5h12.5v-5z" fill="#fff"/></svg>