<svg fill="none" height="60" viewBox="0 0 60 60" width="60" xmlns="http://www.w3.org/2000/svg"><path d="m27.5 52.5c0-.9946-.3951-1.9484-1.0983-2.6516-.7033-.7033-1.6571-1.0984-2.6517-1.0984s-1.9484.3951-2.6517 1.0984c-.7032.7032-1.0983 1.657-1.0983 2.6516h-12.5c-.66304 0-1.29893-.2634-1.76777-.7322-.46884-.4689-.73223-1.1048-.73223-1.7678v-40c0-.66304.26339-1.29893.73223-1.76777s1.10473-.73223 1.76777-.73223h12.5c0 .99456.3951 1.94839 1.0983 2.6517.7033.7032 1.6571 1.0983 2.6517 1.0983s1.9484-.3951 2.6517-1.0983c.7032-.70331 1.0983-1.65714 1.0983-2.6517h25c.663 0 1.2989.26339 1.7678.73223.4688.46884.7322 1.10473.7322 1.76777v13.75c-1.6576 0-3.2473.6585-4.4194 1.8306s-1.8306 2.7618-1.8306 4.4194.6585 3.2473 1.8306 4.4194 2.7618 1.8306 4.4194 1.8306v13.75c0 .663-.2634 1.2989-.7322 1.7678-.4689.4688-1.1048.7322-1.7678.7322zm-3.75-26.25c.9946 0 1.9484-.3951 2.6517-1.0983.7032-.7033 1.0983-1.6571 1.0983-2.6517s-.3951-1.9484-1.0983-2.6517c-.7033-.7032-1.6571-1.0983-2.6517-1.0983s-1.9484.3951-2.6517 1.0983c-.7032.7033-1.0983 1.6571-1.0983 2.6517s.3951 1.9484 1.0983 2.6517c.7033.7032 1.6571 1.0983 2.6517 1.0983zm0 15c.9946 0 1.9484-.3951 2.6517-1.0984.7032-.7032 1.0983-1.657 1.0983-2.6516s-.3951-1.9484-1.0983-2.6517c-.7033-.7032-1.6571-1.0983-2.6517-1.0983s-1.9484.3951-2.6517 1.0983c-.7032.7033-1.0983 1.6571-1.0983 2.6517s.3951 1.9484 1.0983 2.6516c.7033.7033 1.6571 1.0984 2.6517 1.0984z" fill="#fff"/></svg>