<svg width="117" height="117" viewBox="0 0 117 117" fill="none" xmlns="http://www.w3.org/2000/svg">
<path fill-rule="evenodd" clip-rule="evenodd" d="M58.135 0C26.0279 0 0 26.0279 0 58.135C0 90.2421 26.0279 116.27 58.135 116.27C90.2421 116.27 116.27 90.2421 116.27 58.135C116.27 26.0279 90.2421 0 58.135 0ZM86.0028 50.6125C90.409 50.6125 93.9849 54.2441 93.9849 58.7186C93.9849 62.0259 92.0054 64.8793 89.3872 66.1762C89.515 66.9544 89.5788 67.7326 89.5788 68.5757C89.5788 81.0266 75.3388 91.0782 57.7144 91.0782C40.09 91.0782 25.85 81.0266 25.85 68.5757C25.85 67.7326 25.9138 66.8896 26.0416 66.1114C23.2319 64.8144 21.3162 62.0259 21.3162 58.7186C21.3162 54.2441 24.8921 50.6125 29.2982 50.6125C31.4055 50.6125 33.3851 51.5204 34.7899 52.8822C40.2816 48.7968 47.8805 46.2677 56.3734 46.0083L60.3964 26.6834C60.5241 26.2943 60.7157 25.97 61.0349 25.7755C61.3542 25.5809 61.7374 25.5161 62.1205 25.5809L75.3388 28.4343C76.2328 26.4888 78.1485 25.1918 80.3835 25.1918C83.5125 25.1918 86.0667 27.7858 86.0667 30.9634C86.0667 34.141 83.5125 36.7349 80.3835 36.7349C77.3184 36.7349 74.8279 34.2707 74.7002 31.2228L62.8868 28.6937L59.247 46.0083C67.5483 46.3325 75.0834 48.9265 80.5112 52.8822C81.916 51.4556 83.8317 50.6125 86.0028 50.6125ZM45.0708 58.7186C41.9418 58.7186 39.3876 61.3126 39.3876 64.4902C39.3876 67.6678 41.9418 70.2617 45.0708 70.2617C48.1998 70.2617 50.754 67.6678 50.754 64.4902C50.754 61.3126 48.1998 58.7186 45.0708 58.7186ZM57.6505 83.9448C59.8217 83.9448 67.229 83.6854 71.1243 79.7296C71.699 79.146 71.699 78.2381 71.252 77.5896C70.6773 77.006 69.7194 77.006 69.1447 77.5896C66.6543 80.0539 61.4819 80.9618 57.7144 80.9618C53.9469 80.9618 48.7106 80.0539 46.2841 77.5896C45.7094 77.006 44.7515 77.006 44.1768 77.5896C43.6021 78.1733 43.6021 79.146 44.1768 79.7296C48.0082 83.6206 55.4794 83.9448 57.6505 83.9448ZM64.4193 64.4902C64.4193 67.6678 66.9736 70.2617 70.1026 70.2617C73.2315 70.2617 75.7858 67.6678 75.7858 64.4902C75.7858 61.3126 73.2315 58.7186 70.1026 58.7186C66.9736 58.7186 64.4193 61.3126 64.4193 64.4902Z" fill="#FF14B1"/>
</svg>
