<svg width="118" height="118" viewBox="0 0 118 118" fill="none" xmlns="http://www.w3.org/2000/svg">
<path fill-rule="evenodd" clip-rule="evenodd" d="M59.0001 0.864258C26.8927 0.864258 0.864502 26.8924 0.864502 58.9998C0.864502 91.1073 26.8927 117.135 59.0001 117.135C91.1075 117.135 117.136 91.1073 117.136 58.9998C117.136 26.8924 91.1075 0.864258 59.0001 0.864258ZM63.8643 58.6387C63.8643 46.7304 54.277 37.0762 42.4495 37.0762C30.622 37.0762 21.034 46.7304 21.034 58.6387C21.034 70.547 30.6227 80.2005 42.4495 80.2005C54.2763 80.2005 63.8643 70.547 63.8643 58.6387ZM87.3564 58.6387C87.3564 47.4267 82.5623 38.3393 76.6486 38.3393C70.7348 38.3393 65.9416 47.4296 65.9416 58.6387C65.9416 69.8478 70.7356 78.9381 76.6493 78.9381C82.5631 78.9381 87.3571 69.8478 87.3571 58.6387H87.3564ZM96.9662 58.6387C96.9662 48.5952 95.2797 40.4536 93.2003 40.4536C91.1208 40.4536 89.435 48.5959 89.435 58.6387C89.435 68.6814 91.1201 76.8238 93.2003 76.8238C95.2804 76.8238 96.9662 68.6793 96.9662 58.6387Z" fill="#FF14B1"/>
</svg>
