<svg width="41" height="40" viewBox="0 0 41 40" fill="none" xmlns="http://www.w3.org/2000/svg">
<path d="M5.94718 5H35.9472C36.3892 5 36.8131 5.17559 37.1257 5.48816C37.4383 5.80072 37.6139 6.22464 37.6139 6.66667V33.3333C37.6139 33.7754 37.4383 34.1993 37.1257 34.5118C36.8131 34.8244 36.3892 35 35.9472 35H5.94718C5.50516 35 5.08123 34.8244 4.76867 34.5118C4.45611 34.1993 4.28052 33.7754 4.28052 33.3333V6.66667C4.28052 6.22464 4.45611 5.80072 4.76867 5.48816C5.08123 5.17559 5.50516 5 5.94718 5ZM12.6139 21.6667V28.3333H15.9472V21.6667H12.6139ZM19.2805 11.6667V28.3333H22.6139V11.6667H19.2805ZM25.9472 16.6667V28.3333H29.2805V16.6667H25.9472Z" fill="#FF14B1"/>
</svg>
