<svg width="41" height="40" viewBox="0 0 41 40" fill="none" xmlns="http://www.w3.org/2000/svg">
<path d="M9.28488 19.0962C9.28493 18.8723 9.3292 18.6505 9.41518 18.4437C9.50115 18.2369 9.62712 18.0491 9.78587 17.8912C9.94461 17.7332 10.133 17.6081 10.3402 17.5232C10.5474 17.4382 10.7694 17.395 10.9933 17.396L13.8257 17.4053C14.2773 17.4053 14.7104 17.5847 15.0298 17.904C15.3491 18.2234 15.5285 18.6565 15.5285 19.1081V29.8188C15.8475 29.7243 16.2558 29.6235 16.705 29.5177C17.0163 29.4445 17.2937 29.2682 17.4922 29.0176C17.6908 28.767 17.7989 28.4566 17.7989 28.1369V14.8519C17.7989 14.4003 17.9783 13.9671 18.2977 13.6477C18.617 13.3283 19.0501 13.1489 19.5017 13.1488H22.3427C22.7944 13.1489 23.2275 13.3283 23.5468 13.6477C23.8662 13.9671 24.0455 14.4003 24.0455 14.8519V27.1825C24.0455 27.1825 24.7563 26.8949 25.4482 26.6026C25.7053 26.4939 25.9247 26.3119 26.079 26.0792C26.2333 25.8466 26.3157 25.5737 26.316 25.2946V10.5947C26.316 10.1432 26.4953 9.71009 26.8146 9.39076C27.1339 9.07143 27.5669 8.89199 28.0184 8.8919H30.8565C31.3078 8.89234 31.7405 9.07194 32.0595 9.39123C32.3784 9.71052 32.5576 10.1434 32.5576 10.5947V22.6995C35.0181 20.9164 37.5117 18.7716 39.4905 16.1927C39.7776 15.8184 39.9676 15.3788 40.0435 14.9132C40.1194 14.4476 40.0789 13.9704 39.9255 13.5243C39.0095 10.889 37.5535 8.47388 35.6505 6.43357C33.7476 4.39327 31.4397 2.77268 28.8745 1.6755C26.3093 0.578333 23.5433 0.0287413 20.7535 0.0619019C17.9637 0.0950625 15.2116 0.710243 12.6732 1.86808C10.1348 3.02591 7.86602 4.7009 6.01211 6.78587C4.15821 8.87083 2.75996 11.3198 1.90685 13.9762C1.05375 16.6326 0.764563 19.4378 1.05781 22.2123C1.35105 24.9868 2.22027 27.6696 3.60984 30.0889C3.85193 30.5063 4.20811 30.8459 4.63652 31.0678C5.06493 31.2897 5.54778 31.3848 6.02835 31.3418C6.56521 31.2945 7.23364 31.2278 8.02835 31.1345C8.37423 31.0952 8.69355 30.93 8.9255 30.6704C9.15746 30.4109 9.28584 30.0751 9.28621 29.7269V19.0962" fill="#FF14B1"/>
<path d="M9.22412 36.2734C12.2156 38.4496 15.7508 39.7559 19.4386 40.0477C23.1264 40.3395 26.823 39.6054 30.1195 37.9267C33.416 36.2479 36.1838 33.6899 38.1168 30.5358C40.0497 27.3816 41.0724 23.7542 41.0717 20.0549C41.0717 19.5921 41.0502 19.1365 41.0195 18.6823C33.6929 29.6096 20.1649 34.718 9.22412 36.2734" fill="#FF14B1"/>
</svg>
