<svg width="40" height="40" viewBox="0 0 40 40" fill="none" xmlns="http://www.w3.org/2000/svg">
<path fill-rule="evenodd" clip-rule="evenodd" d="M20 0C8.9543 0 0 8.9543 0 20C0 31.0457 8.9543 40 20 40C31.0457 40 40 31.0457 40 20C40 8.9543 31.0457 0 20 0ZM28.3953 22.6342C28.8171 22.8714 29.3706 22.8187 29.845 22.5288C30.583 22.0544 30.952 21.1055 30.8993 19.9194V19.893V19.8667C30.8993 13.7253 25.9704 8.74373 19.9345 8.74373C13.8986 8.74373 8.96975 13.7253 8.96975 19.8667C8.96975 21.6853 9.41783 23.4777 10.2613 25.0855L16.6135 14.9114C17.3778 13.7517 18.1686 13.6726 18.6957 13.8308C19.4865 14.068 19.9082 14.8324 19.9345 16.1239V21.7381L22.7812 17.1782C23.2292 16.4402 24.4417 14.4633 26.0495 14.9378C26.9984 15.2014 27.5519 16.2293 27.5519 17.6526V20.631C27.5519 21.6063 27.8682 22.3179 28.3953 22.6342ZM33.3242 19.8403V19.8667C33.4297 21.9489 32.6126 23.6885 31.0838 24.6901C29.845 25.4545 28.3426 25.5336 27.1565 24.8483C25.8387 24.1103 25.0743 22.5815 25.0743 20.6838V18.1007C25.0015 18.1735 24.9413 18.2714 24.8762 18.3771C24.8471 18.4245 24.817 18.4735 24.7843 18.5224L21.6478 23.6095C20.5671 25.3227 19.5655 25.4545 18.9066 25.27C18.2476 25.0855 17.4569 24.4265 17.4569 22.397V18.1534L11.7373 27.3259C13.7405 29.5926 16.6398 31.016 19.8818 31.016C22.6494 31.016 25.3379 29.9353 27.341 28.0375L27.3674 28.0112C27.8682 27.5631 28.6326 27.5895 29.0806 28.0903C29.5551 28.5911 29.5287 29.3554 29.0279 29.8299C26.5503 32.1757 23.3347 33.4672 19.9345 33.4672C12.5544 33.4672 6.54484 27.3522 6.54484 19.8667C6.54484 12.3547 12.5544 6.26611 19.9345 6.26611C27.2883 6.26611 33.2979 12.3547 33.3242 19.814V19.8403Z" fill="#FF14B1"/>
</svg>
