<svg width="118" height="117" viewBox="0 0 118 117" fill="none" xmlns="http://www.w3.org/2000/svg">
<path fill-rule="evenodd" clip-rule="evenodd" d="M58.9998 0C26.8924 0 0.864258 26.0282 0.864258 58.1356C0.864258 90.243 26.8924 116.271 58.9998 116.271C91.1073 116.271 117.135 90.243 117.135 58.1356C117.135 26.0282 91.1073 0 58.9998 0ZM81.3573 52.7726C81.8126 52.7705 82.2676 52.7468 82.7208 52.7016H82.7287V43.2257C79.2674 42.9658 76.0052 41.4649 73.5125 38.9853C71.0198 36.5057 69.4552 33.2053 69.0923 29.661H61.1488L61.0658 69.4195C61.0658 74.2975 56.8707 78.1406 52.1204 78.1406C49.8397 78.1406 47.6523 77.2103 46.0396 75.5542C44.4269 73.8981 43.5209 71.652 43.5209 69.3099C43.5209 66.9679 44.4269 64.7218 46.0396 63.0657C47.6523 61.4096 49.8397 60.4792 52.1204 60.4792C52.3849 60.4792 52.6406 60.5151 52.8966 60.5511C52.9848 60.5634 53.0731 60.5758 53.1618 60.5868V52.0604C53.0797 52.0551 52.9977 52.0493 52.9156 52.0434C52.6522 52.0245 52.3886 52.0056 52.1204 52.0056C48.7879 52.0056 45.5303 53.0204 42.7594 54.9216C39.9885 56.8228 37.8289 59.525 36.5536 62.6866C35.2783 65.8482 34.9447 69.3271 35.5948 72.6834C36.2449 76.0397 37.8497 79.1227 40.2061 81.5425C42.5625 83.9622 45.5648 85.6101 48.8333 86.2777C52.1017 86.9453 55.4896 86.6027 58.5684 85.2931C61.6472 83.9836 64.2787 81.7659 66.1301 78.9205C67.9816 76.0752 68.9698 72.73 68.9698 69.3079V45.898C70.3164 48.0099 72.154 49.7443 74.3167 50.9445C76.4793 52.1447 78.899 52.773 81.3573 52.7726Z" fill="#FF14B1"/>
</svg>
