<svg width="41" height="41" viewBox="0 0 41 41" fill="none" xmlns="http://www.w3.org/2000/svg">
<path fill-rule="evenodd" clip-rule="evenodd" d="M20.0909 0.109985C8.995 0.109985 0 9.10499 0 20.2009C0 31.2968 8.995 40.2918 20.0909 40.2918C31.1868 40.2918 40.1818 31.2968 40.1818 20.2009C40.1818 9.10499 31.1868 0.109985 20.0909 0.109985ZM23.5082 37.9028C22.9754 38.1691 22.405 38.2091 21.861 38.2471C21.7651 38.2538 21.67 38.2605 21.5761 38.2683C20.4795 38.425 19.3307 38.3728 18.2341 38.2683C16.8242 38.1117 15.4143 37.7461 14.0566 37.2762C12.3856 36.7017 10.8712 35.814 9.4091 34.8741C8.88691 34.5086 8.41694 34.0908 7.94697 33.6731C6.9026 32.7853 6.01488 31.741 5.2316 30.6444C5.12716 30.4877 5.02272 30.3311 5.02272 30.1744C6.27597 27.3546 6.74594 24.3781 7.00704 21.3494C7.02792 21.0675 7.04672 20.7855 7.06552 20.5035C7.14072 19.3756 7.21591 18.2477 7.42478 17.1197C7.68588 15.5009 8.3125 14.0388 9.46132 12.7856C10.5057 11.689 11.8112 10.9579 13.2211 10.4357C14.3699 9.96576 15.5709 9.54801 16.8764 9.49579C18.0672 9.44401 19.2068 9.5976 20.3459 9.85472C21.4355 9.54655 22.5759 9.44649 23.6647 9.8613C24.4713 10.1638 25.0833 10.7096 25.3596 11.5458L25.4403 11.5845C26.7457 12.1067 28.1034 12.6289 29.4611 13.0467C30.871 13.4644 32.2809 13.9344 33.4819 14.8221C34.9963 15.9709 35.414 17.433 34.7352 19.2085C34.3174 20.3051 33.5342 21.1406 32.7509 21.9761C32.1869 22.5609 31.6062 23.1291 31.0256 23.6972C30.1546 24.5494 29.2835 25.4016 28.4689 26.3102C26.9024 28.1379 25.4925 30.0178 24.5003 32.2109C23.6648 34.0386 23.1948 35.9185 23.5082 37.9028ZM33.5864 20.7228C33.5342 20.7228 33.4819 20.7228 33.4297 20.775C33.3775 20.775 33.3253 20.8273 33.3253 20.8795V20.9317C33.3775 20.9317 33.4297 20.8795 33.4297 20.8273L33.5864 20.7228ZM17.6074 11.6368C15.6231 11.6368 14.0043 13.2555 14.0043 15.1876C14.0043 17.1719 15.6231 18.7385 17.5552 18.7907C19.5395 18.7907 21.1061 17.1719 21.1583 15.1876C21.1583 13.2033 19.5918 11.6368 17.6074 11.6368ZM24.918 23.4904C23.5053 23.5391 22.0926 23.4515 20.8071 22.7612C22.0926 23.4513 23.5054 23.5356 24.9181 23.4382C27.0068 23.3338 28.9911 22.8116 30.871 22.0283L30.8711 22.0283C31.6021 21.715 32.3331 21.4017 33.012 20.9839C33.0642 20.9317 33.1164 20.8795 33.2208 20.9317C33.2168 20.948 33.2117 20.9631 33.2059 20.977C33.1112 20.9368 33.0616 20.9864 33.0119 21.0361C32.3331 21.4538 31.602 21.7671 30.871 22.0805L30.8709 22.0805C28.991 22.916 27.0067 23.386 24.918 23.4904ZM30.401 19.5218C30.8188 19.5218 31.1843 19.1563 31.1843 18.6863C31.1843 18.2685 30.8188 17.903 30.3488 17.9552C29.9311 17.9552 29.6177 18.3208 29.6177 18.7385C29.6177 19.2085 29.9311 19.5218 30.401 19.5218ZM17.6595 17.7464C19.0172 17.7464 20.1138 16.5976 20.1138 15.2399C20.1138 13.83 18.965 12.6812 17.6073 12.6812C16.2496 12.6812 15.1008 13.7777 15.1008 15.1876V15.2399C15.1008 16.6498 16.2496 17.7464 17.6073 17.7464H17.6595Z" fill="#FF14B1"/>
<path d="M40.1818 20.2009C40.1818 31.2968 31.1868 40.2918 20.0909 40.2918C8.995 40.2918 0 31.2968 0 20.2009C0 9.10499 8.995 0.109985 20.0909 0.109985C31.1868 0.109985 40.1818 9.10499 40.1818 20.2009ZM2.00909 20.2009C2.00909 30.1872 10.1046 38.2827 20.0909 38.2827C30.0772 38.2827 38.1727 30.1872 38.1727 20.2009C38.1727 10.2146 30.0772 2.11908 20.0909 2.11908C10.1046 2.11908 2.00909 10.2146 2.00909 20.2009Z" fill="#FF14B1"/>
<path d="M20.4258 22.7123C23.1046 23.5494 29.1318 23.2145 33.4849 20.8706C31.0293 22.3774 24.9797 24.8553 20.4258 22.7123Z" fill="#FF14B1"/>
</svg>
