<svg width="60" height="60" viewBox="0 0 60 60" fill="none" xmlns="http://www.w3.org/2000/svg">
<path d="M21.8182 8.18182C9.76364 8.18182 0 17.9455 0 30C0 42.0545 9.76364 51.8182 21.8182 51.8182C33.8727 51.8182 43.6364 42.0545 43.6364 30C43.6364 17.9455 33.8727 8.18182 21.8182 8.18182ZM52.5 7.5L60 10.9091L52.5 14.3182L49.0909 21.8182L45.6818 14.3182L38.1818 10.9091L45.6818 7.5L49.0909 0L52.5 7.5ZM52.5 45.6818L60 49.0909L52.5 52.5L49.0909 60L45.6818 52.5L38.1818 49.0909L45.6818 45.6818L49.0909 38.1818L52.5 45.6818Z" fill="white"/>
<path d="M12.5 39.5V20.5H16.7084L21.5 31.5L26.3911 20.5H30.5V39.5H27.125V25.02L23.1875 36H20.0973L15.875 25.02V39.5H12.5Z" fill="#150633"/>
</svg>
