<svg width="60" height="60" viewBox="0 0 60 60" fill="none" xmlns="http://www.w3.org/2000/svg">
<path d="M21.8182 8.18182C9.76364 8.18182 0 17.9455 0 30C0 42.0545 9.76364 51.8182 21.8182 51.8182C33.8727 51.8182 43.6364 42.0545 43.6364 30C43.6364 17.9455 33.8727 8.18182 21.8182 8.18182ZM30 25.9091H24.5455V39.5455H19.0909V25.9091H13.6364V21.8182H30V25.9091ZM52.5 7.5L60 10.9091L52.5 14.3182L49.0909 21.8182L45.6818 14.3182L38.1818 10.9091L45.6818 7.5L49.0909 0L52.5 7.5ZM52.5 45.6818L60 49.0909L52.5 52.5L49.0909 60L45.6818 52.5L38.1818 49.0909L45.6818 45.6818L49.0909 38.1818L52.5 45.6818Z" fill="white"/>
</svg>
