<svg width="60" height="60" viewBox="0 0 60 60" fill="none" xmlns="http://www.w3.org/2000/svg">
<g clip-path="url(#clip0_4043_41)">
<path d="M20.625 44.0625H24.375C24.6236 44.0625 24.8621 43.9637 25.0379 43.7879C25.2137 43.6121 25.3125 43.3736 25.3125 43.125V39.375C25.3125 39.1264 25.2137 38.8879 25.0379 38.7121C24.8621 38.5363 24.6236 38.4375 24.375 38.4375H20.625C20.3764 38.4375 20.1379 38.5363 19.9621 38.7121C19.7863 38.8879 19.6875 39.1264 19.6875 39.375V43.125C19.6875 43.3736 19.7863 43.6121 19.9621 43.7879C20.1379 43.9637 20.3764 44.0625 20.625 44.0625ZM21.5625 40.3125H23.4375V42.1875H21.5625V40.3125Z" fill="white"/>
<path d="M28.125 44.0625H31.875C32.1236 44.0625 32.3621 43.9637 32.5379 43.7879C32.7137 43.6121 32.8125 43.3736 32.8125 43.125V39.375C32.8125 39.1264 32.7137 38.8879 32.5379 38.7121C32.3621 38.5363 32.1236 38.4375 31.875 38.4375H28.125C27.8764 38.4375 27.6379 38.5363 27.4621 38.7121C27.2863 38.8879 27.1875 39.1264 27.1875 39.375V43.125C27.1875 43.3736 27.2863 43.6121 27.4621 43.7879C27.6379 43.9637 27.8764 44.0625 28.125 44.0625ZM29.0625 40.3125H30.9375V42.1875H29.0625V40.3125Z" fill="white"/>
<path d="M20.625 51.5625H24.375C24.6236 51.5625 24.8621 51.4637 25.0379 51.2879C25.2137 51.1121 25.3125 50.8736 25.3125 50.625V46.875C25.3125 46.6264 25.2137 46.3879 25.0379 46.2121C24.8621 46.0363 24.6236 45.9375 24.375 45.9375H20.625C20.3764 45.9375 20.1379 46.0363 19.9621 46.2121C19.7863 46.3879 19.6875 46.6264 19.6875 46.875V50.625C19.6875 50.8736 19.7863 51.1121 19.9621 51.2879C20.1379 51.4637 20.3764 51.5625 20.625 51.5625ZM21.5625 47.8125H23.4375V49.6875H21.5625V47.8125Z" fill="white"/>
<path d="M28.125 51.5625H31.875C32.1236 51.5625 32.3621 51.4637 32.5379 51.2879C32.7137 51.1121 32.8125 50.8736 32.8125 50.625V46.875C32.8125 46.6264 32.7137 46.3879 32.5379 46.2121C32.3621 46.0363 32.1236 45.9375 31.875 45.9375H28.125C27.8764 45.9375 27.6379 46.0363 27.4621 46.2121C27.2863 46.3879 27.1875 46.6264 27.1875 46.875V50.625C27.1875 50.8736 27.2863 51.1121 27.4621 51.2879C27.6379 51.4637 27.8764 51.5625 28.125 51.5625ZM29.0625 47.8125H30.9375V49.6875H29.0625V47.8125Z" fill="white"/>
<path d="M46.6031 12.8532L48.1969 11.2501H49.6875V12.7407L48.0844 14.3345L49.4156 15.6657L50.625 14.447L51.8344 15.6657L53.1656 14.3345L51.5625 12.7407V11.2501H53.0531L54.6469 12.8532L55.9781 11.522L54.7594 10.3126L55.9781 9.10322L54.6469 7.77197L53.0531 9.3751H51.5625V7.88447L53.1656 6.29072L51.8344 4.95947L50.625 6.17822L49.4156 4.95947L48.0844 6.29072L49.6875 7.88447V9.3751H48.1969L46.6031 7.77197L45.2719 9.10322L46.4906 10.3126L45.2719 11.522L46.6031 12.8532Z" fill="white"/>
<path d="M53.4375 22.5C53.4375 23.0563 53.6025 23.6 53.9115 24.0625C54.2205 24.5251 54.6598 24.8855 55.1737 25.0984C55.6876 25.3113 56.2531 25.367 56.7987 25.2585C57.3443 25.1499 57.8454 24.8821 58.2387 24.4887C58.6321 24.0954 58.8999 23.5943 59.0085 23.0487C59.117 22.5031 59.0613 21.9376 58.8484 21.4237C58.6355 20.9098 58.2751 20.4705 57.8125 20.1615C57.35 19.8524 56.8063 19.6875 56.25 19.6875C55.5041 19.6875 54.7887 19.9838 54.2613 20.5113C53.7338 21.0387 53.4375 21.7541 53.4375 22.5ZM56.25 21.5625C56.4354 21.5625 56.6167 21.6175 56.7708 21.7205C56.925 21.8235 57.0452 21.9699 57.1161 22.1412C57.1871 22.3125 57.2057 22.501 57.1695 22.6829C57.1333 22.8648 57.044 23.0318 56.9129 23.1629C56.7818 23.294 56.6148 23.3833 56.4329 23.4195C56.251 23.4557 56.0625 23.4371 55.8912 23.3661C55.7199 23.2952 55.5735 23.175 55.4705 23.0208C55.3675 22.8667 55.3125 22.6854 55.3125 22.5C55.3125 22.2514 55.4113 22.0129 55.5871 21.8371C55.7629 21.6613 56.0014 21.5625 56.25 21.5625Z" fill="white"/>
<path d="M35.625 14.0625C36.1813 14.0625 36.725 13.8976 37.1875 13.5885C37.6501 13.2795 38.0105 12.8402 38.2234 12.3263C38.4363 11.8124 38.492 11.2469 38.3835 10.7013C38.2749 10.1557 38.0071 9.6546 37.6137 9.26126C37.2204 8.86793 36.7193 8.60006 36.1737 8.49154C35.6281 8.38302 35.0626 8.43872 34.5487 8.65159C34.0348 8.86446 33.5955 9.22495 33.2865 9.68746C32.9775 10.15 32.8125 10.6937 32.8125 11.25C32.8125 11.9959 33.1088 12.7113 33.6363 13.2387C34.1637 13.7662 34.8791 14.0625 35.625 14.0625ZM35.625 10.3125C35.8104 10.3125 35.9917 10.3675 36.1458 10.4705C36.3 10.5735 36.4202 10.7199 36.4911 10.8912C36.5621 11.0625 36.5807 11.251 36.5445 11.4329C36.5083 11.6148 36.419 11.7818 36.2879 11.9129C36.1568 12.044 35.9898 12.1333 35.8079 12.1695C35.626 12.2057 35.4375 12.1871 35.2662 12.1161C35.0949 12.0452 34.9485 11.925 34.8455 11.7708C34.7425 11.6167 34.6875 11.4354 34.6875 11.25C34.6875 11.0014 34.7863 10.7629 34.9621 10.5871C35.1379 10.4113 35.3764 10.3125 35.625 10.3125Z" fill="white"/>
<path d="M15 6.5625C15.5563 6.5625 16.1 6.39755 16.5625 6.08851C17.0251 5.77947 17.3855 5.34022 17.5984 4.8263C17.8113 4.31238 17.867 3.74688 17.7585 3.20131C17.6499 2.65574 17.3821 2.1546 16.9887 1.76126C16.5954 1.36793 16.0943 1.10006 15.5487 0.991543C15.0031 0.883022 14.4376 0.938719 13.9237 1.15159C13.4098 1.36446 12.9705 1.72495 12.6615 2.18746C12.3525 2.64997 12.1875 3.19374 12.1875 3.75C12.1875 4.49592 12.4838 5.21129 13.0113 5.73874C13.5387 6.26619 14.2541 6.5625 15 6.5625V6.5625ZM15 2.8125C15.1854 2.8125 15.3667 2.86748 15.5208 2.9705C15.675 3.07351 15.7952 3.21993 15.8661 3.39124C15.9371 3.56254 15.9557 3.75104 15.9195 3.9329C15.8833 4.11476 15.794 4.2818 15.6629 4.41291C15.5318 4.54403 15.3648 4.63331 15.1829 4.66949C15.001 4.70566 14.8125 4.6871 14.6412 4.61614C14.4699 4.54518 14.3235 4.42502 14.2205 4.27085C14.1175 4.11668 14.0625 3.93542 14.0625 3.75C14.0625 3.50136 14.1613 3.2629 14.3371 3.08709C14.5129 2.91127 14.7514 2.8125 15 2.8125V2.8125Z" fill="white"/>
<path d="M57.1875 50.625C57.1882 50.5016 57.1646 50.3793 57.1179 50.2651C57.0713 50.1509 57.0025 50.047 56.9156 49.9594L51.2906 44.3344C51.2035 44.2465 51.0998 44.1768 50.9855 44.1292C50.8713 44.0816 50.7488 44.0571 50.625 44.0571C50.5012 44.0571 50.3787 44.0816 50.2645 44.1292C50.1502 44.1768 50.0465 44.2465 49.9594 44.3344L47.8125 46.4906L45.6656 44.3344C45.5785 44.2465 45.4748 44.1768 45.3605 44.1292C45.2463 44.0816 45.1238 44.0571 45 44.0571C44.8762 44.0571 44.7537 44.0816 44.6395 44.1292C44.5252 44.1768 44.4215 44.2465 44.3344 44.3344L38.7094 49.9594C38.6225 50.047 38.5537 50.1509 38.5071 50.2651C38.4604 50.3793 38.4368 50.5016 38.4375 50.625V57.1875H36.5625V38.4375H58.125C58.3101 38.4366 58.4908 38.3809 58.6442 38.2774C58.7977 38.174 58.9172 38.0275 58.9875 37.8563C59.0593 37.6855 59.0789 37.4974 59.0439 37.3155C59.0088 37.1336 58.9207 36.9662 58.7906 36.8344L41.4188 19.4719C40.5968 18.6487 39.6206 17.9956 38.546 17.5501C37.4714 17.1045 36.3195 16.8752 35.1562 16.8752C33.993 16.8752 32.8411 17.1045 31.7665 17.5501C30.6919 17.9956 29.7157 18.6487 28.8937 19.4719L27.1875 21.1781V11.25C27.1875 11.0014 27.0887 10.7629 26.9129 10.5871C26.7371 10.4113 26.4986 10.3125 26.25 10.3125H3.75C3.50136 10.3125 3.2629 10.4113 3.08709 10.5871C2.91127 10.7629 2.8125 11.0014 2.8125 11.25V57.1875H0.9375V59.0625H59.0625V57.1875H57.1875V50.625ZM50.625 46.3219L55.3125 51.0094V57.1875H51.5625V50.625C51.5632 50.5016 51.5396 50.3793 51.4929 50.2651C51.4463 50.1509 51.3775 50.047 51.2906 49.9594L49.1344 47.8125L50.625 46.3219ZM40.3125 51.0094L45 46.3219L49.6875 51.0094V57.1875H40.3125V51.0094ZM18.75 21.5625V29.0625H11.25V21.5625H18.75ZM11.25 19.6875V12.1875H18.75V19.6875H11.25ZM34.6875 53.4375H17.8125V36.5625H34.6875V53.4375ZM16.875 34.6875C16.6264 34.6875 16.3879 34.7863 16.2121 34.9621C16.0363 35.1379 15.9375 35.3764 15.9375 35.625V38.4375H11.25V30.9375H18.75V34.6875H16.875ZM20.625 34.6875V30.9375H25.3125V34.6875H20.625ZM20.625 29.0625V21.5625H25.3125V29.0625H20.625ZM9.375 29.0625H4.6875V21.5625H9.375V29.0625ZM9.375 30.9375V38.4375H4.6875V30.9375H9.375ZM9.375 40.3125V47.8125H4.6875V40.3125H9.375ZM11.25 40.3125H15.9375V47.8125H11.25V40.3125ZM17.8125 55.3125H34.6875V57.1875H17.8125V55.3125ZM36.5625 36.5625V35.625C36.5625 35.3764 36.4637 35.1379 36.2879 34.9621C36.1121 34.7863 35.8736 34.6875 35.625 34.6875H27.1875V31.875H28.125C29.1196 31.875 30.0734 31.4799 30.7766 30.7766C31.4799 30.0734 31.875 29.1196 31.875 28.125C31.875 27.8764 31.9738 27.6379 32.1496 27.4621C32.3254 27.2863 32.5639 27.1875 32.8125 27.1875C33.0611 27.1875 33.2996 27.2863 33.4754 27.4621C33.6512 27.6379 33.75 27.8764 33.75 28.125V29.0625C33.75 29.8084 34.0463 30.5238 34.5738 31.0512C35.1012 31.5787 35.8166 31.875 36.5625 31.875C37.3084 31.875 38.0238 31.5787 38.5512 31.0512C39.0787 30.5238 39.375 29.8084 39.375 29.0625V26.25C39.375 26.0014 39.4738 25.7629 39.6496 25.5871C39.8254 25.4113 40.0639 25.3125 40.3125 25.3125C40.5611 25.3125 40.7996 25.4113 40.9754 25.5871C41.1512 25.7629 41.25 26.0014 41.25 26.25C41.25 26.9959 41.5463 27.7113 42.0738 28.2387C42.6012 28.7662 43.3166 29.0625 44.0625 29.0625H48.3656L55.8656 36.5625H36.5625ZM30.2156 20.7938C31.5268 19.485 33.3037 18.75 35.1562 18.75C37.0088 18.75 38.7857 19.485 40.0969 20.7938L46.4906 27.1875H44.0625C43.8139 27.1875 43.5754 27.0887 43.3996 26.9129C43.2238 26.7371 43.125 26.4986 43.125 26.25C43.125 25.5041 42.8287 24.7887 42.3012 24.2613C41.7738 23.7338 41.0584 23.4375 40.3125 23.4375C39.5666 23.4375 38.8512 23.7338 38.3238 24.2613C37.7963 24.7887 37.5 25.5041 37.5 26.25V29.0625C37.5 29.3111 37.4012 29.5496 37.2254 29.7254C37.0496 29.9012 36.8111 30 36.5625 30C36.3139 30 36.0754 29.9012 35.8996 29.7254C35.7238 29.5496 35.625 29.3111 35.625 29.0625V28.125C35.625 27.3791 35.3287 26.6637 34.8012 26.1363C34.2738 25.6088 33.5584 25.3125 32.8125 25.3125C32.0666 25.3125 31.3512 25.6088 30.8238 26.1363C30.2963 26.6637 30 27.3791 30 28.125C30 28.6223 29.8025 29.0992 29.4508 29.4508C29.0992 29.8025 28.6223 30 28.125 30H27.1875V23.8219L30.2156 20.7938ZM25.3125 19.6875H20.625V12.1875H25.3125V19.6875ZM9.375 12.1875V19.6875H4.6875V12.1875H9.375ZM4.6875 49.6875H15.9375V57.1875H4.6875V49.6875Z" fill="white"/>
<path d="M46.875 50.625H43.125C42.8764 50.625 42.6379 50.7238 42.4621 50.8996C42.2863 51.0754 42.1875 51.3139 42.1875 51.5625V55.3125C42.1875 55.5611 42.2863 55.7996 42.4621 55.9754C42.6379 56.1512 42.8764 56.25 43.125 56.25H46.875C47.1236 56.25 47.3621 56.1512 47.5379 55.9754C47.7137 55.7996 47.8125 55.5611 47.8125 55.3125V51.5625C47.8125 51.3139 47.7137 51.0754 47.5379 50.8996C47.3621 50.7238 47.1236 50.625 46.875 50.625ZM45.9375 54.375H44.0625V52.5H45.9375V54.375Z" fill="white"/>
</g>
<defs>
<clipPath id="clip0_4043_41">
<rect width="60" height="60" fill="white"/>
</clipPath>
</defs>
</svg>
