<svg fill="none" height="240" viewBox="0 0 241 240" width="241" xmlns="http://www.w3.org/2000/svg"><g fill="#c2abcb"><path d="m12.9351 109.698-.2303 1.841-8.49789 1.034 7.97579 3.142-.2204 1.762-11.399338 1.026.204506-1.894 9.462332-.364-8.51552-3.21.20053-1.603 9.02379-.984-9.06528-2.682.26801-1.885z"/><path d="m12.7838 99.0592c-.5063-.13-.8943-.3342-1.1642-.6128-.2775-.2915-.4562-.6678-.5361-1.1288-.0901-.4637-.1073-1.0187-.0514-1.6651.0455-.6491.1421-1.3897.2897-2.2218l-.9608-.2467c-.42356-.1088-.78231-.0413-1.07621.2026-.29125.2336-.50984.6345-.65577 1.2027-.05306.2066-.10376.4469-.15208.7208-.04567.2636-.07982.5467-.10245.8492-.02263.3026-.02593.6156-.00989.9391l-1.41989-.0673c-.03055-.4814-.01831-.9793.03673-1.4938.0447-.5172.12277-.9927.23421-1.4266.19368-.7542.45619-1.3476.78752-1.7801.32365-.4455.71745-.7353 1.1814-.8694.4666-.1445.99953-.1398 1.59873.0141l3.6883.9472c.31.0796.5337.0875.6712.0237.1272-.0665.2094-.172.2465-.3166.0133-.0517.0241-.115.0323-.19s.0061-.1526-.0063-.2329l1.2796.1634c.0505.1892.0764.3886.0777.5982.0115.2122-.0119.4319-.0702.6592-.1009.3926-.2696.6852-.5063.8777-.2443.1795-.563.2629-.9562.25.13.3087.2443.6354.343.9801.091.3317.1379.6852.1407 1.0603.0157.3675-.0295.7579-.1356 1.1711-.0849.3306-.2135.617-.3858.8591-.1593.2344-.3571.4258-.5935.5744-.2441.1355-.5188.2191-.8243.2508s-.6391.0011-1.0006-.0918zm.3138-1.7365c.4029.1035.7277.0823.9744-.0636s.4125-.3841.4974-.7147c.0637-.248.0925-.5104.0866-.7873-.0164-.2795-.0612-.5553-.1345-.8274-.0809-.2851-.197-.5407-.3482-.7667l-1.8906-.4855c-.0861.5065-.1485.964-.1873 1.3725-.0389.4085-.0334.7733.0163 1.0944.042.3082.1412.5649.2977.7703.1592.1951.3885.3311.6882.408z"/><path d="m20.3603 82.3543c-.1988.5064-.4588.8913-.78 1.1548s-.7086.4036-1.1621.4203c-.4595.0029-.9871-.1126-1.5828-.3465l-4.3339-1.7019-.5146 1.3106-1.0723-.4211.3806-1.3632-1.74994-.9278.54974-1.3999 1.8318.7193.9708-2.4722 1.2064.4737-.9709 2.4722 4.2147 1.6551c.4865.191.876.2351 1.1685.1322.2926-.1028.5207-.3628.6844-.7798.0819-.2085.1459-.4298.1919-.6638.0401-.2478.0771-.5026.1111-.7643l1.3238.262c-.0191.428-.074.8305-.1647 1.2074-.0808.3808-.1816.7251-.3025 1.0329z"/><path d="m20.1666 71.9856c-.9118-.489-1.5882-1.0334-2.0292-1.633-.4503-.6046-.6797-1.2602-.6881-1.9667-.0034-.716.2067-1.4687.6301-2.2584.1412-.2632.299-.5235.4734-.781.17-.2719.3491-.5269.5373-.7649.1787-.243.359-.455.5407-.6359l1.1481.9062c-.1579.1816-.3115.3776-.4607.5881-.1586.2055-.3078.4159-.4476.6315-.1347.2061-.2576.4125-.3685.6193-.2621.4888-.3852.9554-.3693 1.3997.0209.4348.1809.8474.4799 1.2378.3041.3809.7663.7378 1.3867 1.0705.5641.3025 1.082.4652 1.5537.4883.4624.018.8784-.0918 1.2479-.3294.3601-.2426.6687-.6036.9258-1.083.1159-.2162.225-.4421.3272-.6778.1072-.2451.2051-.4952.2935-.7504.0935-.2646.1772-.5223.2512-.7731l1.3477.4323c-.0976.4076-.242.8688-.4333 1.3835-.1863.5053-.3979.9788-.6348 1.4206-.6252 1.1657-1.4067 1.8782-2.3448 2.1377-.9474.2544-2.0697.0338-3.3669-.6619z"/><path d="m30.7793 61.8996-9.6377-6.8775 1.0224-1.4327 3.2038 2.2863c.0296-.372.0791-.7167.1484-1.0342.0693-.3174.1677-.6206.2953-.9096.1251-.3039.2899-.5991.4944-.8856.3036-.4254.6388-.73 1.0058-.9137.3583-.1899.7377-.2533 1.1382-.1902.3981.0482.8098.2241 1.2353.5277l5.1835 3.699-1.0131 1.4196-4.7667-3.4016c-.3907-.2788-.7498-.3909-1.0771-.3362-.336.0485-.6403.2638-.9129.6458-.1426.1997-.2634.4149-.3624.6456-.0929.222-.1654.452-.2174.6901-.0606.2319-.1101.4849-.1484.759l5.431 3.8756z"/><path d="m41.9407 37.9898c-.0725-.0638-.1411-.1312-.2057-.2022s-.1292-.142-.1939-.213c-.5313-.5837-.9356-1.1388-1.2129-1.6653-.2766-.5416-.4797-1.1212-.6092-1.7389l1.0672-.7767c.1919.5754.4204 1.0958.6855 1.5613.265.4655.6094.9309 1.033 1.3963.0934.1026.1867.2051.28.3077.1013.0953.2025.1907.3037.2861zm2.0351-1.8525c-.0725-.0638-.141-.1312-.2057-.2022-.0646-.071-.1292-.142-.1938-.213-.5313-.5837-.9357-1.1388-1.213-1.6653-.2765-.5416-.4796-1.1212-.6091-1.7389l1.0671-.7767c.192.5754.4205 1.0958.6855 1.5613.2651.4655.6094.9309 1.0331 1.3964.0933.1025.1866.205.28.3076.1012.0954.2024.1907.3037.2861z"/><path d="m63.2732 29.9221-1.5303 1.0502-6.4138-5.6697 2.9443 8.0508-1.4643 1.005-8.3337-7.8452 1.5517-1.1037 6.5538 6.835-3.2521-8.4994 1.3324-.9144 6.7258 6.096-4.0119-8.5601 1.588-1.051z"/><path d="m71.3427 25.2119-5.1534-10.6597 1.5845-.766 1.7132 3.5436c.2045-.3121.4134-.5908.6265-.8361.2132-.2452.4451-.4639.6958-.6562.2556-.2065.5418-.3864.8587-.5396.4706-.2275.9109-.3337 1.321-.3187.4054.0054.7687.1319 1.0898.3795.3261.2333.6029.5853.8304 1.0558l2.7717 5.7332-1.5702.7591-2.5488-5.2722c-.209-.4322-.4701-.7028-.7835-.8119-.3181-.1188-.6884-.076-1.1109.1283-.2209.1068-.4302.2375-.6278.3923-.1881.1502-.3621.3172-.522.5012-.1645.1743-.3293.3725-.4945.5945l2.904 6.0068z"/><path d="m83.5386 17.3775c-.1634-.4964-.2006-.9334-.1115-1.3108.0959-.391.3164-.7443.6616-1.0601.3419-.326.8001-.6397 1.3747-.9411.5712-.3116 1.247-.6296 2.0274-.9539l-.3103-.9422c-.1367-.4154-.3871-.6811-.7509-.7972-.3538-.1193-.8093-.0873-1.3665.0962-.2026.0667-.4323.1536-.6891.2606-.2466.1036-.5034.2275-.7704.3715-.267.1441-.5324.3101-.7962.498l-.7089-1.2321c.389-.2853.8149-.5435 1.2779-.7745.4596-.2412.9022-.4318 1.3277-.5719.7397-.24351 1.3809-.34235 1.9238-.2965.5497.03239 1.0061.20778 1.3693.5262.3732.3151.6566.7664.85 1.3541l1.1909 3.617c.1001.3039.2141.4966.342.578.1245.0713.2577.0836.3995.0369.0507-.0167.1098-.0417.1774-.0752s.1318-.0771.1928-.1309l.5522 1.1658c-.1321.1445-.286.2738-.4618.3879-.1725.1242-.3702.2229-.5931.2963-.385.1268-.7224.1424-1.0121.0469-.283-.109-.525-.3325-.7261-.6706-.19.2759-.4035.5484-.6406.8173-.2303.2556-.5027.4856-.8171.6902-.301.2114-.6541.3838-1.0594.5173-.3242.1067-.6347.1528-.9315.1382-.2833-.0078-.5512-.0712-.8038-.1902-.2457-.1324-.4643-.3188-.6557-.559s-.3454-.5376-.4622-.8922zm1.6317-.6719c.1301.3951.3231.6572.579.7863.2559.1292.5459.1403.8701.0336.2432-.0801.4797-.1972.7097-.3516.2266-.1644.4347-.3509.6244-.5593.1964-.2219.3491-.4574.4579-.7067l-.6104-1.854c-.473.2006-.892.3947-1.257.5822-.3649.1876-.6693.3889-.9129.6038-.2369.2016-.3996.4236-.4882.6661-.0785.2392-.0693.5057.0274.7996z"/><path d="m101.692 14.7515c-.534.1056-.998.0941-1.393-.0343-.3953-.1285-.7221-.3792-.9807-.7521-.2502-.3854-.4374-.8921-.5616-1.5199l-.9034-4.56753-1.3812.27319-.2235-1.13011 1.3533-.41445-.1621-1.97406 1.4754-.29181.3818 1.9306 2.606-.51532.251 1.27137-2.6055.51532.8785 4.442c.101.5127.274.8645.519 1.0554.244.1909.586.2429 1.025.1559.22-.0434.441-.1088.663-.1962.23-.1.465-.2061.703-.3186l.494 1.2562c-.371.2147-.74.3854-1.106.5123-.364.1372-.709.238-1.033.3021z"/><path d="m122.296 2.45535c-.374.0006-.641-.06831-.801-.20672s-.24-.37295-.241-.70361c0-.32.079-.549464.239-.688386.16-.14959.426-.224685.8-.225283.373-.000598.64.073642.8.222719.16.13841.241.36761.241.68761.001.33067-.079.56547-.239.70439s-.426.20868-.799.20928zm-.848 10.09735-.014-8.62397 1.728-.00277.014 8.62404z"/><path d="m130.267 12.3996.355-1.2663c.174.0822.375.1671.601.2547.228.077.462.1493.702.2168.25.0686.502.1266.754.1739.253.0474.496.0831.729.107.584.06 1.023.0086 1.319-.1541.306-.1616.477-.4227.514-.7835.021-.2016-.009-.3763-.091-.524-.07-.1467-.196-.2829-.376-.4086-.179-.13633-.402-.2611-.669-.37431-.266-.12383-.58-.24725-.943-.37026-.362-.13363-.679-.28412-.951-.45148-.272-.16735-.504-.36273-.696-.58613-.181-.2223-.311-.46623-.391-.73179-.068-.27507-.085-.58239-.05-.92194.084-.81703.424-1.42006 1.022-1.80907.608-.38791 1.453-.52631 2.536-.41519.329.03377.639.08713.932.16008.294.06233.57.13895.829.22985.27.08138.513.17595.727.28372l-.373 1.28063c-.216-.08655-.438-.16833-.666-.24535-.218-.07593-.457-.14343-.719-.2025s-.553-.10494-.871-.13763c-.541-.05556-.959-.00731-1.253.14475-.284.15315-.443.3995-.478.73905-.021.20161.005.37043.076.50648.083.13714.204.26217.364.3751.172.1034.375.21008.61.32002.237.09933.505.20194.805.30781.383.1358.727.28902 1.031.45964.316.1611.575.34859.778.56247.214.21496.37.47222.468.77179.099.28896.127.64036.085 1.05416-.037.3608-.129.6837-.277.9688-.146.2746-.335.5017-.568.6815-.223.181-.483.3204-.783.4183s-.628.1607-.984.1884c-.357.0277-.732.0214-1.124-.0189-.372-.0381-.73-.0964-1.076-.1748-.347-.0677-.681-.1556-1.002-.2637-.322-.108-.62-.2298-.896-.3654z"/><path d="m154.481 17.0393 3.769-10.54685 1.732.61917 1.235 6.38788 5.003-4.15888 1.672.59763-3.769 10.54685-1.551-.5546 2.859-8.0005-4.616 3.7877-.799-.2854-1.15-5.81424-2.848 7.97044z"/><path d="m171.911 23.9955 5.361-9.8339 6.49 3.5379-.758 1.3908-4.889-2.6649-1.455 2.6692 4.552 2.4811-.751 1.3767-4.551-2.4811-1.639 3.0064 5.142 2.8027-.759 1.3908z"/><path d="m197.292 28.7856-2.729-2.0149-5.712 7.7356-1.442-1.0645 5.713-7.7356-2.729-2.0149.941-1.2743 6.899 5.0944z"/><path d="m200.934 43.1816c.25.2481.511.4548.783.6199.287.1651.589.2699.906.3142s.656.0207 1.018-.0709c.369-.0991.764-.2926 1.186-.5805.429-.2803.884-.6625 1.366-1.1466.488-.4917.872-.9529 1.15-1.3837.277-.4307.465-.831.562-1.2009.104-.3623.126-.7018.065-1.0184-.047-.3167-.157-.6143-.331-.8928-.159-.2786-.36-.5383-.602-.7789-.235-.2331-.492-.4285-.771-.5861-.265-.1576-.559-.2623-.883-.3142-.31-.0519-.653-.0245-1.03.0822-.369.0992-.768.2889-1.197.5692-.414.2803-.87.6701-1.366 1.1693-.481.4842-.861.934-1.139 1.3497-.27.4232-.454.8197-.551 1.1896-.089.3773-.111.7244-.064 1.041.046.3167.145.6105.296.8816.167.2711.368.5231.602.7563zm-1.004 1.0325c-.408-.4061-.749-.8275-1.022-1.2642-.265-.4291-.451-.8849-.558-1.3673-.092-.4825-.086-.9803.018-1.4935.112-.5207.337-1.0645.674-1.6311.353-.5668.842-1.164 1.466-1.7919s1.215-1.1161 1.772-1.4647c.564-.3561 1.103-.5877 1.616-.6948.52-.1147 1.018-.1237 1.493-.027.483.0891.94.265 1.37.5277.439.2703.87.616 1.293 1.0371.416.4136.761.8388 1.034 1.2754.28.4442.466.9.558 1.3674.107.4673.105.9613-.007 1.4821-.104.5132-.329 1.0569-.674 1.6311-.338.5667-.819 1.164-1.443 1.7918-.632.6355-1.237 1.1313-1.817 1.4875-.565.3561-1.111.5877-1.639.6949-.512.1071-1.006.1123-1.482.0156-.468-.0891-.924-.2726-1.37-.5503-.439-.2703-.866-.6122-1.282-1.0258z"/><path d="m222.063 53.31-1.351.5419c-.054-.1988-.136-.4169-.245-.6544-.101-.2438-.217-.4899-.347-.7382-.131-.2483-.27-.4902-.418-.7259-.148-.2356-.295-.452-.441-.6492-.451-.6087-.916-1.0138-1.397-1.2152-.481-.2015-.919-.1562-1.313.1357-.197.1459-.341.3189-.432.5189-.076.2021-.109.4451-.098.729.018.2923.08.6447.186 1.0571.115.4061.268.8828.461 1.4302.21.588.356 1.1169.438 1.5868s.103.8924.062 1.2676c-.032.3689-.143.7031-.332 1.0027-.181.2933-.443.5668-.786.8207-.54.3998-1.104.5978-1.69.5941-.579-.0101-1.166-.2122-1.763-.6064-.597-.3941-1.187-.9856-1.771-1.7744-.191-.2572-.381-.5411-.571-.8516-.19-.3106-.375-.6317-.554-.9636-.164-.3295-.314-.6569-.448-.982-.128-.3166-.233-.6106-.314-.882l1.347-.5195c.075.2629.178.5451.308.8468.13.3016.271.6086.423.9211.16.306.326.6015.497.8863s.342.543.513.7745c.343.463.676.8139.999 1.0527.331.2325.651.3604.96.3837.31.0233.597-.0634.863-.2601.197-.146.332-.3318.403-.5575.072-.2257.086-.4944.041-.8062-.03-.3095-.108-.6833-.233-1.1215-.125-.4381-.282-.9458-.471-1.523-.177-.5451-.298-1.0397-.361-1.4839-.057-.4356-.059-.8324-.006-1.1904.06-.3495.181-.6709.362-.9642.187-.2847.448-.5508.782-.7982.36-.2666.744-.438 1.152-.5144.417-.0827.841-.065 1.274.0529.438.1265.879.364 1.323.7124s.878.8098 1.303 1.3843c.248.3343.477.6888.688 1.0635.22.3683.414.729.582 1.0821.175.3617.3.6739.375.9368z"/><path d="m217.873 66.7084 9.878-5.2784.837 1.5664-4.784 2.5563 2.511 4.6991 4.784-2.5562.837 1.5664-9.878 5.2784-.837-1.5664 3.683-1.9681-2.511-4.6992-3.683 1.9681z"/><path d="m225.168 81.7284 10.431-4.0779.647 1.6541-10.431 4.0779z"/><path d="m235.086 89.2518-.222-1.3011c.601.0835 1.168.11 1.703.0792.535-.0307 1.105-.1324 1.71-.3053.133-.0381.265-.0813.396-.1296.133-.0381.265-.0813.395-.1296l.427 1.4923c-.09.0366-.181.0681-.273.0945-.092.0263-.185.0527-.277.0791-.759.2167-1.441.3339-2.046.3514-.595.0146-1.199-.0624-1.813-.2309zm.756 2.6461-.222-1.3011c.6.0836 1.168.11 1.703.0793s1.105-.1325 1.71-.3053c.133-.0381.265-.0813.396-.1296.133-.0381.265-.0813.395-.1296l.426 1.4923c-.089.0366-.18.0681-.272.0945-.092.0263-.185.0527-.277.0791-.759.2167-1.441.3339-2.046.3514-.595.0146-1.2-.0624-1.813-.231z"/></g></svg>