<svg width="21" height="19" viewBox="0 0 21 19" fill="none" xmlns="http://www.w3.org/2000/svg">
<path d="M19.284 3.9267C19.3031 4.20753 19.284 4.43753 19.2231 4.60753L15.6281 16.4634C15.5681 16.6734 15.4281 16.8342 15.2081 16.9634C15.0044 17.0832 14.7736 17.1491 14.5373 17.155H3.45231C2.49064 17.155 1.91981 16.8742 1.71981 16.3134C1.63981 16.0934 1.63981 15.9225 1.72981 15.7925C1.81981 15.6725 1.96981 15.6125 2.19064 15.6125H12.624C13.3656 15.6125 13.8856 15.4725 14.1656 15.2017C14.4465 14.9317 14.7373 14.31 15.0273 13.36L18.3223 2.48503C18.5023 1.89337 18.4223 1.37337 18.1015 0.922533C17.7815 0.472533 17.3206 0.241699 16.7298 0.241699H7.58814C7.48814 0.241699 7.27731 0.281699 6.97648 0.351699L6.98648 0.311699C6.8005 0.265162 6.6089 0.244965 6.41731 0.251699C6.26336 0.256759 6.11399 0.305297 5.98648 0.391699C5.86666 0.469501 5.75862 0.564073 5.66564 0.672532C5.58564 0.772532 5.51564 0.892533 5.43564 1.05253C5.3653 1.19295 5.30189 1.33673 5.24564 1.48337C5.19023 1.62569 5.12992 1.76605 5.06481 1.9042C4.99481 2.0542 4.93481 2.1742 4.86481 2.2742C4.81481 2.33503 4.74481 2.4242 4.66481 2.5242C4.58481 2.62503 4.50398 2.72503 4.44398 2.80503C4.39348 2.8709 4.35613 2.94588 4.33398 3.02587C4.31398 3.09587 4.32398 3.20587 4.35398 3.34587C4.38398 3.48587 4.39398 3.5867 4.39398 3.6567C4.36398 3.9567 4.25398 4.34753 4.06398 4.81837C3.87314 5.28837 3.70314 5.6292 3.55314 5.8292C3.47043 5.92319 3.38368 6.01355 3.29314 6.10003C3.15231 6.24003 3.06231 6.36003 3.03231 6.47003C3.00231 6.51003 3.00231 6.62003 3.02231 6.81087C3.05231 6.99087 3.06231 7.12087 3.05231 7.19087C3.02231 7.4617 2.92231 7.8217 2.75231 8.27253C2.61381 8.65203 2.44637 9.02034 2.25148 9.3742C2.23148 9.4242 2.16148 9.5142 2.05148 9.6542C1.94064 9.7942 1.87064 9.9042 1.85148 9.99503C1.83064 10.055 1.84064 10.175 1.86064 10.335C1.88064 10.4959 1.88064 10.6159 1.85064 10.6959C1.79064 10.9959 1.67064 11.3667 1.49064 11.7975C1.30981 12.2275 1.12981 12.5884 0.948976 12.8984C0.898976 12.9792 0.839809 13.0692 0.748976 13.1792C0.668976 13.2892 0.598976 13.3792 0.548976 13.4592C0.501264 13.536 0.467417 13.6207 0.448976 13.7092C0.441287 13.7883 0.455106 13.8681 0.488976 13.94C0.518976 14.05 0.528976 14.13 0.528976 14.2009C0.518976 14.3109 0.508976 14.4609 0.478976 14.6409C0.458976 14.8209 0.438976 14.9317 0.438976 14.9617C0.258976 15.4417 0.268976 15.9534 0.458976 16.4834C0.678976 17.1042 1.07981 17.635 1.65064 18.0659C2.22148 18.4959 2.82231 18.7067 3.43314 18.7067H14.5173C15.0381 18.7067 15.529 18.5359 15.9898 18.1859C16.4506 17.8359 16.7606 17.405 16.9106 16.8942L20.2156 6.0192C20.3956 5.4392 20.3156 4.92753 19.9948 4.46753C19.8248 4.21753 19.5948 4.0467 19.284 3.9267Z" fill="white"/>
</svg>
