<svg width="20" height="19" viewBox="0 0 20 19" fill="none" xmlns="http://www.w3.org/2000/svg">
<path d="M18.974 3.685C18.9931 3.96583 18.974 4.19583 18.9131 4.36583L15.3181 16.2217C15.2581 16.4317 15.1181 16.5925 14.8981 16.7217C14.6944 16.8415 14.4636 16.9074 14.2273 16.9133H3.14231C2.18064 16.9133 1.60981 16.6325 1.40981 16.0717C1.32981 15.8517 1.32981 15.6808 1.41981 15.5508C1.50981 15.4308 1.65981 15.3708 1.88064 15.3708H12.314C13.0556 15.3708 13.5756 15.2308 13.8556 14.96C14.1365 14.69 14.4273 14.0683 14.7173 13.1183L18.0123 2.24333C18.1923 1.65167 18.1123 1.13167 17.7915 0.680833C17.4715 0.230833 17.0106 0 16.4198 0H7.27814C7.17814 0 6.96731 0.04 6.66648 0.11L6.67648 0.07C6.4905 0.023463 6.29891 0.00326593 6.10731 0.01C5.95336 0.0150599 5.80399 0.0635979 5.67648 0.15C5.55667 0.227801 5.44862 0.322374 5.35564 0.430833C5.27564 0.530833 5.20564 0.650833 5.12564 0.810833C5.0553 0.95125 4.99189 1.09503 4.93564 1.24167C4.88024 1.38399 4.81992 1.52435 4.75481 1.6625C4.68481 1.8125 4.62481 1.9325 4.55481 2.0325C4.50481 2.09333 4.43481 2.1825 4.35481 2.2825C4.27481 2.38333 4.19398 2.48333 4.13398 2.56333C4.08348 2.6292 4.04613 2.70418 4.02398 2.78417C4.00398 2.85417 4.01398 2.96417 4.04398 3.10417C4.07398 3.24417 4.08398 3.345 4.08398 3.415C4.05398 3.715 3.94398 4.10583 3.75398 4.57667C3.56314 5.04667 3.39314 5.3875 3.24314 5.5875C3.16043 5.68149 3.07368 5.77185 2.98314 5.85833C2.84231 5.99833 2.75231 6.11833 2.72231 6.22833C2.69231 6.26833 2.69231 6.37833 2.71231 6.56917C2.74231 6.74917 2.75231 6.87917 2.74231 6.94917C2.71231 7.22 2.61231 7.58 2.44231 8.03083C2.30381 8.41033 2.13637 8.77864 1.94148 9.1325C1.92148 9.1825 1.85148 9.2725 1.74148 9.4125C1.63064 9.5525 1.56064 9.6625 1.54148 9.75333C1.52064 9.81333 1.53064 9.93333 1.55064 10.0933C1.57064 10.2542 1.57064 10.3742 1.54064 10.4542C1.48064 10.7542 1.36064 11.125 1.18064 11.5558C0.999811 11.9858 0.819811 12.3467 0.638978 12.6567C0.588978 12.7375 0.529811 12.8275 0.438978 12.9375C0.358978 13.0475 0.288978 13.1375 0.238978 13.2175C0.191267 13.2943 0.157419 13.379 0.138978 13.4675C0.131289 13.5466 0.145109 13.6264 0.178978 13.6983C0.208978 13.8083 0.218978 13.8883 0.218978 13.9592C0.208978 14.0692 0.198978 14.2192 0.168978 14.3992C0.148978 14.5792 0.128978 14.69 0.128978 14.72C-0.0510221 15.2 -0.041022 15.7117 0.148978 16.2417C0.368978 16.8625 0.769811 17.3933 1.34064 17.8242C1.91148 18.2542 2.51231 18.465 3.12314 18.465H14.2073C14.7281 18.465 15.219 18.2942 15.6798 17.9442C16.1406 17.5942 16.4506 17.1633 16.6006 16.6525L19.9056 5.7775C20.0856 5.1975 20.0056 4.68583 19.6848 4.22583C19.5148 3.97583 19.2848 3.805 18.974 3.685V3.685ZM5.96564 12.2967L7.38814 8.01083H8.46898C8.84981 8.01083 11.3523 7.84083 11.0123 9.76333C10.6723 11.6858 9.12981 12.2867 7.32731 12.3067C5.52564 12.3267 5.96564 12.2967 5.96564 12.2967V12.2967ZM7.86814 11.6958C8.33898 11.6858 9.76065 11.405 10.0815 9.98333C10.4015 8.56167 8.92981 8.64167 8.92981 8.64167H8.03815L7.01731 11.6958C7.02731 11.7058 7.40814 11.7058 7.86814 11.6958V11.6958ZM7.53814 6.87917L8.90981 2.62333H9.89148L9.97148 6.02833L12.334 2.62333H13.3256L11.964 6.87917H11.2531L12.5048 3.335L10.0515 6.87917H9.37065L9.29064 3.375L8.20898 6.87917H7.53814Z" fill="#FF14B1" fill-rule="evenodd"/>
</svg>
